<svg xmlns="http://www.w3.org/2000/svg" width="1440" height="390" viewBox="0 0 1440 390" fill="none">
<path d="M0 105.11C0 105.11 91.0542 66.5062 153.003 60.4993C313.036 44.9817 370.725 221.144 531.503 222.499C695.518 223.882 754.989 59.0378 919.003 60.4993C1079.6 61.9303 1147.15 280.261 1297 222.499C1364.42 196.514 1440 105.11 1440 105.11" stroke="#B683BF" stroke-width="2" stroke-dasharray="9 9"/>
<g filter="url(#filter0_ddi_116_1317)">
<rect x="857.003" y="30" width="100" height="100" rx="10" fill="white"/>
</g>
<path d="M889.003 68H915.003L921.003 76H925.003C927.223 76 929.003 77.78 929.003 80V86H925.003C925.003 87.5913 924.371 89.1174 923.246 90.2426C922.12 91.3679 920.594 92 919.003 92C917.412 92 915.886 91.3679 914.76 90.2426C913.635 89.1174 913.003 87.5913 913.003 86H901.003C901.003 87.5913 900.371 89.1174 899.246 90.2426C898.12 91.3679 896.594 92 895.003 92C893.412 92 891.886 91.3679 890.76 90.2426C889.635 89.1174 889.003 87.5913 889.003 86H885.003V72C885.003 69.78 886.783 68 889.003 68ZM888.003 71V76H904.003V71H888.003ZM907.003 71V76H917.283L913.503 71H907.003ZM895.003 83C894.207 83 893.444 83.3161 892.882 83.8787C892.319 84.4413 892.003 85.2044 892.003 86C892.003 86.7956 892.319 87.5587 892.882 88.1213C893.444 88.6839 894.207 89 895.003 89C895.799 89 896.562 88.6839 897.124 88.1213C897.687 87.5587 898.003 86.7956 898.003 86C898.003 85.2044 897.687 84.4413 897.124 83.8787C896.562 83.3161 895.799 83 895.003 83ZM919.003 83C918.207 83 917.444 83.3161 916.882 83.8787C916.319 84.4413 916.003 85.2044 916.003 86C916.003 86.7956 916.319 87.5587 916.882 88.1213C917.444 88.6839 918.207 89 919.003 89C919.799 89 920.562 88.6839 921.124 88.1213C921.687 87.5587 922.003 86.7956 922.003 86C922.003 85.2044 921.687 84.4413 921.124 83.8787C920.562 83.3161 919.799 83 919.003 83Z" fill="#35133C"/>
<text fill="black" font-size="26px" font-weight="600" x="775" y="170">Vehicle Confirmation</text>
<text fill="#00000099" font-size="22px" font-weight='500' x="820" y="205">Choose your cab</text>
<text fill="#00000099" font-size="22px" font-weight='500' x="830" y="230">and pay online</text>
<g filter="url(#filter1_ddi_116_1317)">
<rect x="1212" y="160" width="100" height="100" rx="10" fill="white"/>
</g>
<path d="M1240.4 205.8C1240.4 205.004 1240.72 204.241 1241.28 203.679C1241.84 203.116 1242.61 202.8 1243.4 202.8C1244.2 202.8 1244.96 203.116 1245.52 203.679C1246.09 204.241 1246.4 205.004 1246.4 205.8V223.8C1246.4 224.596 1246.09 225.359 1245.52 225.921C1244.96 226.484 1244.2 226.8 1243.4 226.8C1242.61 226.8 1241.84 226.484 1241.28 225.921C1240.72 225.359 1240.4 224.596 1240.4 223.8V205.8ZM1264.4 193.2V190.08C1264.4 189.437 1264.74 188.818 1265.35 188.623C1266.07 188.395 1266.83 188.34 1267.58 188.462C1268.32 188.583 1269.03 188.879 1269.64 189.325C1270.25 189.771 1270.74 190.354 1271.08 191.028C1271.43 191.701 1271.6 192.445 1271.6 193.2C1271.6 195.588 1271.17 197.875 1270.37 199.983C1269.88 201.279 1270.77 202.8 1272.15 202.8H1278.2C1281.19 202.8 1283.63 205.224 1283.35 208.193C1282.9 213.09 1281.82 217.909 1280.13 222.531C1279.17 225.175 1276.58 226.8 1273.76 226.8H1266.1C1264.98 226.8 1263.88 226.539 1262.88 226.039L1256.32 222.761C1255.32 222.261 1254.22 222.001 1253.1 222H1250V205.2H1252.31C1253.96 205.2 1255.33 204.041 1256.18 202.637C1257.37 200.679 1259.21 199.207 1261.38 198.485C1262.42 198.142 1263.43 197.559 1263.81 196.531C1264.19 195.495 1264.4 194.371 1264.4 193.2Z" fill="#35133C"/>
<text fill="black" font-size="26px" font-weight="600" x="1170" y="300">Enjoy Your Trips</text>
<text fill="#00000099" font-size="22px" font-weight='500' x="1180" y="338">And get your cab</text>
<text fill="#00000099" font-size="22px" font-weight='500' x="1230" y="365">details</text>
<g filter="url(#filter2_ddi_116_1317)">
<rect x="493.003" y="160" width="100" height="100" rx="10" fill="white"/>
</g>
<path d="M535.003 214C534.436 214 533.961 213.808 533.577 213.424C533.193 213.04 533.002 212.565 533.003 212C533.003 211.433 533.195 210.958 533.579 210.574C533.963 210.19 534.438 209.999 535.003 210C535.57 210 536.045 210.192 536.429 210.576C536.813 210.96 537.004 211.435 537.003 212C537.003 212.567 536.811 213.042 536.427 213.426C536.043 213.81 535.568 214.001 535.003 214ZM543.003 214C542.436 214 541.961 213.808 541.577 213.424C541.193 213.04 541.002 212.565 541.003 212C541.003 211.433 541.195 210.958 541.579 210.574C541.963 210.19 542.438 209.999 543.003 210C543.57 210 544.045 210.192 544.429 210.576C544.813 210.96 545.004 211.435 545.003 212C545.003 212.567 544.811 213.042 544.427 213.426C544.043 213.81 543.568 214.001 543.003 214ZM551.003 214C550.436 214 549.961 213.808 549.577 213.424C549.193 213.04 549.002 212.565 549.003 212C549.003 211.433 549.195 210.958 549.579 210.574C549.963 210.19 550.438 209.999 551.003 210C551.57 210 552.045 210.192 552.429 210.576C552.813 210.96 553.004 211.435 553.003 212C553.003 212.567 552.811 213.042 552.427 213.426C552.043 213.81 551.568 214.001 551.003 214ZM529.003 230C527.903 230 526.961 229.608 526.177 228.824C525.393 228.04 525.002 227.099 525.003 226V198C525.003 196.9 525.395 195.958 526.179 195.174C526.963 194.39 527.904 193.999 529.003 194H531.003V192C531.003 191.433 531.195 190.958 531.579 190.574C531.963 190.19 532.438 189.999 533.003 190C533.57 190 534.045 190.192 534.429 190.576C534.813 190.96 535.004 191.435 535.003 192V194H551.003V192C551.003 191.433 551.195 190.958 551.579 190.574C551.963 190.19 552.438 189.999 553.003 190C553.57 190 554.045 190.192 554.429 190.576C554.813 190.96 555.004 191.435 555.003 192V194H557.003C558.103 194 559.045 194.392 559.829 195.176C560.613 195.96 561.004 196.901 561.003 198V226C561.003 227.1 560.611 228.042 559.827 228.826C559.043 229.61 558.102 230.001 557.003 230H529.003ZM529.003 226H557.003V206H529.003V226Z" fill="#35133C"/>
<text fill="black" font-size="26px" font-weight="600" x="480" y="300">Pick Dates</text>
<text fill="#00000099" font-size="22px" font-weight='500' x="450" y="338">Pick the departure</text>
<text fill="#00000099" font-size="22px" font-weight='500' x="465" y="365">and return date</text>
<g filter="url(#filter3_ddi_116_1317)">
<rect x="140.003" y="30" width="100" height="100" rx="10" fill="white"/>
</g>
<path d="M190.003 80C191.103 80 192.045 79.608 192.829 78.824C193.613 78.04 194.004 77.0987 194.003 76C194.003 74.9 193.611 73.958 192.827 73.174C192.043 72.39 191.102 71.9987 190.003 72C188.903 72 187.961 72.392 187.177 73.176C186.393 73.96 186.002 74.9013 186.003 76C186.003 77.1 186.395 78.042 187.179 78.826C187.963 79.61 188.904 80.0013 190.003 80ZM190.003 99.25C189.736 99.25 189.47 99.2 189.203 99.1C188.936 99 188.703 98.8667 188.503 98.7C183.636 94.4 180.003 90.408 177.603 86.724C175.203 83.04 174.003 79.5987 174.003 76.4C174.003 71.4 175.612 67.4167 178.829 64.45C182.046 61.4833 185.771 60 190.003 60C194.236 60 197.962 61.4833 201.179 64.45C204.396 67.4167 206.004 71.4 206.003 76.4C206.003 79.6 204.803 83.042 202.403 86.726C200.003 90.41 196.37 94.4013 191.503 98.7C191.303 98.8667 191.07 99 190.803 99.1C190.536 99.2 190.27 99.25 190.003 99.25Z" fill="#35133C"/>
<text fill="black" font-size="26px" font-weight="600" x="85" y="170">Choose a location</text>
<text fill="#00000099" font-size="22px" font-weight='500' x="100" y="205">Fill your location in</text>
<text fill="#00000099" font-size="22px" font-weight='500' x="130" y="230">booking form</text>
<defs>
<filter id="filter0_ddi_116_1317" x="777.003" y="0" width="260" height="260" filterUnits="userSpaceOnUse" color-interpolation-filters="sRGB">
<feFlood flood-opacity="0" result="BackgroundImageFix"/>

<feColorMatrix in="SourceAlpha" type="matrix" values="0 0 0 0 0 0 0 0 0 0 0 0 0 0 0 0 0 0 127 0" result="hardAlpha"/>
<feMorphology radius="20" operator="erode" in="SourceAlpha" result="effect1_dropShadow_116_1317"/>
<feOffset dy="50"/>
<feGaussianBlur stdDeviation="50"/>
<feColorMatrix type="matrix" values="0 0 0 0 0.196078 0 0 0 0 0.196078 0 0 0 0 0.364706 0 0 0 0.25 0"/>
<feBlend mode="normal" in2="BackgroundImageFix" result="effect1_dropShadow_116_1317"/>
<feColorMatrix in="SourceAlpha" type="matrix" values="0 0 0 0 0 0 0 0 0 0 0 0 0 0 0 0 0 0 127 0" result="hardAlpha"/>
<feMorphology radius="30" operator="erode" in="SourceAlpha" result="effect2_dropShadow_116_1317"/>
<feOffset dy="30"/>
<feGaussianBlur stdDeviation="30"/>
<feColorMatrix type="matrix" values="0 0 0 0 0 0 0 0 0 0 0 0 0 0 0 0 0 0 0.3 0"/>
<feBlend mode="normal" in2="effect1_dropShadow_116_1317" result="effect2_dropShadow_116_1317"/>
<feBlend mode="normal" in="SourceGraphic" in2="effect2_dropShadow_116_1317" result="shape"/>
<feColorMatrix in="SourceAlpha" type="matrix" values="0 0 0 0 0 0 0 0 0 0 0 0 0 0 0 0 0 0 127 0" result="hardAlpha"/>
<feOffset dy="1"/>
<feGaussianBlur stdDeviation="0.5"/>
<feComposite in2="hardAlpha" operator="arithmetic" k2="-1" k3="1"/>
<feColorMatrix type="matrix" values="0 0 0 0 1 0 0 0 0 1 0 0 0 0 1 0 0 0 0.1 0"/>
<feBlend mode="normal" in2="shape" result="effect3_innerShadow_116_1317"/>
</filter>
<filter id="filter1_ddi_116_1317" x="1132" y="130" width="260" height="260" filterUnits="userSpaceOnUse" color-interpolation-filters="sRGB">
<feFlood flood-opacity="0" result="BackgroundImageFix"/>
<feColorMatrix in="SourceAlpha" type="matrix" values="0 0 0 0 0 0 0 0 0 0 0 0 0 0 0 0 0 0 127 0" result="hardAlpha"/>
<feMorphology radius="20" operator="erode" in="SourceAlpha" result="effect1_dropShadow_116_1317"/>
<feOffset dy="50"/>
<feGaussianBlur stdDeviation="50"/>
<feColorMatrix type="matrix" values="0 0 0 0 0.196078 0 0 0 0 0.196078 0 0 0 0 0.364706 0 0 0 0.25 0"/>
<feBlend mode="normal" in2="BackgroundImageFix" result="effect1_dropShadow_116_1317"/>
<feColorMatrix in="SourceAlpha" type="matrix" values="0 0 0 0 0 0 0 0 0 0 0 0 0 0 0 0 0 0 127 0" result="hardAlpha"/>
<feMorphology radius="30" operator="erode" in="SourceAlpha" result="effect2_dropShadow_116_1317"/>
<feOffset dy="30"/>
<feGaussianBlur stdDeviation="30"/>
<feColorMatrix type="matrix" values="0 0 0 0 0 0 0 0 0 0 0 0 0 0 0 0 0 0 0.3 0"/>
<feBlend mode="normal" in2="effect1_dropShadow_116_1317" result="effect2_dropShadow_116_1317"/>
<feBlend mode="normal" in="SourceGraphic" in2="effect2_dropShadow_116_1317" result="shape"/>
<feColorMatrix in="SourceAlpha" type="matrix" values="0 0 0 0 0 0 0 0 0 0 0 0 0 0 0 0 0 0 127 0" result="hardAlpha"/>
<feOffset dy="1"/>
<feGaussianBlur stdDeviation="0.5"/>
<feComposite in2="hardAlpha" operator="arithmetic" k2="-1" k3="1"/>
<feColorMatrix type="matrix" values="0 0 0 0 1 0 0 0 0 1 0 0 0 0 1 0 0 0 0.1 0"/>
<feBlend mode="normal" in2="shape" result="effect3_innerShadow_116_1317"/>
</filter>
<filter id="filter2_ddi_116_1317" x="413.003" y="130" width="260" height="260" filterUnits="userSpaceOnUse" color-interpolation-filters="sRGB">
<feFlood flood-opacity="0" result="BackgroundImageFix"/>
<feColorMatrix in="SourceAlpha" type="matrix" values="0 0 0 0 0 0 0 0 0 0 0 0 0 0 0 0 0 0 127 0" result="hardAlpha"/>
<feMorphology radius="20" operator="erode" in="SourceAlpha" result="effect1_dropShadow_116_1317"/>
<feOffset dy="50"/>
<feGaussianBlur stdDeviation="50"/>
<feColorMatrix type="matrix" values="0 0 0 0 0.196078 0 0 0 0 0.196078 0 0 0 0 0.364706 0 0 0 0.25 0"/>
<feBlend mode="normal" in2="BackgroundImageFix" result="effect1_dropShadow_116_1317"/>
<feColorMatrix in="SourceAlpha" type="matrix" values="0 0 0 0 0 0 0 0 0 0 0 0 0 0 0 0 0 0 127 0" result="hardAlpha"/>
<feMorphology radius="30" operator="erode" in="SourceAlpha" result="effect2_dropShadow_116_1317"/>
<feOffset dy="30"/>
<feGaussianBlur stdDeviation="30"/>
<feColorMatrix type="matrix" values="0 0 0 0 0 0 0 0 0 0 0 0 0 0 0 0 0 0 0.3 0"/>
<feBlend mode="normal" in2="effect1_dropShadow_116_1317" result="effect2_dropShadow_116_1317"/>
<feBlend mode="normal" in="SourceGraphic" in2="effect2_dropShadow_116_1317" result="shape"/>
<feColorMatrix in="SourceAlpha" type="matrix" values="0 0 0 0 0 0 0 0 0 0 0 0 0 0 0 0 0 0 127 0" result="hardAlpha"/>
<feOffset dy="1"/>
<feGaussianBlur stdDeviation="0.5"/>
<feComposite in2="hardAlpha" operator="arithmetic" k2="-1" k3="1"/>
<feColorMatrix type="matrix" values="0 0 0 0 1 0 0 0 0 1 0 0 0 0 1 0 0 0 0.1 0"/>
<feBlend mode="normal" in2="shape" result="effect3_innerShadow_116_1317"/>
</filter>
<filter id="filter3_ddi_116_1317" x="60.0029" y="0" width="260" height="260" filterUnits="userSpaceOnUse" color-interpolation-filters="sRGB">
<feFlood flood-opacity="0" result="BackgroundImageFix"/>
<feColorMatrix in="SourceAlpha" type="matrix" values="0 0 0 0 0 0 0 0 0 0 0 0 0 0 0 0 0 0 127 0" result="hardAlpha"/>
<feMorphology radius="20" operator="erode" in="SourceAlpha" result="effect1_dropShadow_116_1317"/>
<feOffset dy="50"/>
<feGaussianBlur stdDeviation="50"/>
<feColorMatrix type="matrix" values="0 0 0 0 0.196078 0 0 0 0 0.196078 0 0 0 0 0.364706 0 0 0 0.25 0"/>
<feBlend mode="normal" in2="BackgroundImageFix" result="effect1_dropShadow_116_1317"/>
<feColorMatrix in="SourceAlpha" type="matrix" values="0 0 0 0 0 0 0 0 0 0 0 0 0 0 0 0 0 0 127 0" result="hardAlpha"/>
<feMorphology radius="30" operator="erode" in="SourceAlpha" result="effect2_dropShadow_116_1317"/>
<feOffset dy="30"/>
<feGaussianBlur stdDeviation="30"/>
<feColorMatrix type="matrix" values="0 0 0 0 0 0 0 0 0 0 0 0 0 0 0 0 0 0 0.3 0"/>
<feBlend mode="normal" in2="effect1_dropShadow_116_1317" result="effect2_dropShadow_116_1317"/>
<feBlend mode="normal" in="SourceGraphic" in2="effect2_dropShadow_116_1317" result="shape"/>
<feColorMatrix in="SourceAlpha" type="matrix" values="0 0 0 0 0 0 0 0 0 0 0 0 0 0 0 0 0 0 127 0" result="hardAlpha"/>
<feOffset dy="1"/>
<feGaussianBlur stdDeviation="0.5"/>
<feComposite in2="hardAlpha" operator="arithmetic" k2="-1" k3="1"/>
<feColorMatrix type="matrix" values="0 0 0 0 1 0 0 0 0 1 0 0 0 0 1 0 0 0 0.1 0"/>
<feBlend mode="normal" in2="shape" result="effect3_innerShadow_116_1317"/>
</filter>
</defs>
</svg>