<svg width="1440" height="329" viewBox="0 0 1440 329" fill="none" xmlns="http://www.w3.org/2000/svg">
<mask id="mask0_121_149" style="mask-type:luminance" maskUnits="userSpaceOnUse" x="0" y="-1" width="1440" height="331">
<path d="M0 -0.616211H1440V329.616H0V-0.616211Z" fill="white"/>
</mask>
<g mask="url(#mask0_121_149)">
<path d="M1488.97 -25.7891V354.788H-48.9672V-25.7891H1488.97Z" fill="#F4F4F4"/>
<path d="M493.854 259.6C487.009 245.873 478.931 245.242 463.065 245.242C461.25 245.242 459.559 245.261 457.928 245.292C456.758 241.977 452.617 241.966 450.683 241.966C448.515 241.966 443.58 241.978 443.155 246.637C437.268 247.932 433.298 250.351 430.189 254.791C428.853 256.703 428.011 257.828 427.382 258.293C427.058 258.532 426.825 258.843 426.671 259.185C422.049 259.423 418.36 259.756 416.202 260.216C406.554 262.269 405.494 264.412 404.726 270.509C404.717 270.573 404.709 270.641 404.7 270.706C402.599 271.952 401.682 274.032 401.682 277.392C401.682 281.405 402.646 285.118 409.635 285.118H489.355C499.478 285.118 499.864 282.345 499.864 270.591C499.864 263.326 495.843 260.538 493.854 259.6ZM474.238 250.164V258.789C469.462 258.729 464.093 258.681 458.578 258.665V249.814C460.001 249.792 461.475 249.777 463.065 249.777C467.554 249.777 471.182 249.833 474.238 250.164ZM433.918 257.384C437.568 252.17 442.874 250.418 454.036 249.936V258.66C446.648 258.666 439.223 258.74 432.811 258.938C433.147 258.48 433.51 257.969 433.918 257.384Z" fill="#853095"/>
<path d="M478.884 271.649C471.941 271.649 468.979 274.605 468.979 281.533C468.979 285.584 469.792 290.351 476.14 291.244C476.955 291.357 477.879 291.414 478.884 291.414C485.826 291.414 488.789 288.459 488.789 281.533C488.789 274.605 485.826 271.649 478.884 271.649Z" fill="#853095"/>
<path d="M422.422 271.649C415.481 271.649 412.518 274.605 412.518 281.533C412.518 285.584 413.332 290.351 419.68 291.244C420.495 291.357 421.418 291.414 422.422 291.414C429.366 291.414 432.327 288.459 432.327 281.533C432.327 274.605 429.366 271.649 422.422 271.649Z" fill="#853095"/>
<path d="M478.88 278.205C481.375 278.205 482.214 279.043 482.214 281.532C482.214 284.021 481.375 284.859 478.88 284.859C478.485 284.859 478.127 284.834 477.818 284.797C476.138 284.563 475.545 283.639 475.545 281.544C475.545 279.055 476.385 278.217 478.88 278.217V278.205Z" fill="#F4F4F4"/>
<path d="M422.417 278.205C424.912 278.205 425.752 279.043 425.752 281.532C425.752 284.021 424.912 284.859 422.417 284.859C422.022 284.859 421.664 284.834 421.355 284.797C419.676 284.563 419.083 283.639 419.083 281.544C419.083 279.055 419.923 278.217 422.417 278.217V278.205Z" fill="#F4F4F4"/>
<path d="M726.743 136.849C724.063 136.849 721.655 137.958 719.926 139.732C718.197 137.958 715.789 136.849 713.109 136.849C710.429 136.849 708.021 137.958 706.292 139.732C704.563 137.958 702.154 136.849 699.474 136.849C696.794 136.849 694.386 137.958 692.657 139.732C690.928 137.958 688.52 136.849 685.84 136.849C683.16 136.849 680.752 137.958 679.023 139.732C677.294 137.958 674.886 136.849 672.206 136.849C669.526 136.849 667.118 137.958 665.389 139.732C663.66 137.958 661.251 136.849 658.571 136.849C655.892 136.849 653.483 137.958 651.754 139.732C650.025 137.958 647.617 136.849 644.937 136.849C642.257 136.849 639.849 137.958 638.12 139.732C636.391 137.958 633.983 136.849 631.303 136.849C626.066 136.849 621.818 141.087 621.818 146.312C621.818 151.537 626.066 155.775 631.303 155.775H726.706C731.942 155.775 736.191 151.537 736.191 146.312C736.191 141.087 731.942 136.849 726.706 136.849H726.743Z" fill="#F4F4F4"/>
<path d="M726.743 136.849C724.063 136.849 721.655 137.958 719.926 139.732C718.197 137.958 715.789 136.849 713.109 136.849C710.429 136.849 708.021 137.958 706.292 139.732C704.563 137.958 702.154 136.849 699.474 136.849C696.794 136.849 694.386 137.958 692.657 139.732C690.928 137.958 688.52 136.849 685.84 136.849C683.16 136.849 680.752 137.958 679.023 139.732C677.294 137.958 674.886 136.849 672.206 136.849C669.526 136.849 667.118 137.958 665.389 139.732C663.66 137.958 661.251 136.849 658.571 136.849C655.892 136.849 653.483 137.958 651.754 139.732C650.025 137.958 647.617 136.849 644.937 136.849C642.257 136.849 639.849 137.958 638.12 139.732C636.391 137.958 633.983 136.849 631.303 136.849C626.066 136.849 621.818 141.087 621.818 146.312C621.818 151.537 626.066 155.775 631.303 155.775H726.706C731.942 155.775 736.191 151.537 736.191 146.312C736.191 141.087 731.942 136.849 726.706 136.849H726.743Z" stroke="#853095" stroke-width="4.00343" stroke-linecap="round" stroke-linejoin="round"/>
<path d="M636.57 256.841C639.262 256.841 641.695 255.781 643.437 254.401C645.178 255.781 647.611 256.841 650.303 256.841C652.995 256.841 655.428 255.781 657.17 254.401C658.911 255.781 661.344 256.841 664.036 256.841C666.729 256.841 669.161 255.781 670.903 254.401C672.644 255.781 675.077 256.841 677.769 256.841C680.462 256.841 682.895 255.781 684.636 254.401C686.377 255.781 688.81 256.841 691.502 256.841C694.195 256.841 696.628 255.781 698.369 254.401C700.11 255.781 702.543 256.841 705.236 256.841C707.928 256.841 710.361 255.781 712.102 254.401C713.843 255.781 716.276 256.841 718.969 256.841" fill="#F4F4F4"/>
<path d="M636.57 256.841C639.262 256.841 641.695 255.781 643.437 254.401C645.178 255.781 647.611 256.841 650.303 256.841C652.995 256.841 655.428 255.781 657.17 254.401C658.911 255.781 661.344 256.841 664.036 256.841C666.729 256.841 669.161 255.781 670.903 254.401C672.644 255.781 675.077 256.841 677.769 256.841C680.462 256.841 682.895 255.781 684.636 254.401C686.377 255.781 688.81 256.841 691.502 256.841C694.195 256.841 696.628 255.781 698.369 254.401C700.11 255.781 702.543 256.841 705.236 256.841C707.928 256.841 710.361 255.781 712.102 254.401C713.843 255.781 716.276 256.841 718.969 256.841" stroke="#853095" stroke-width="3.63311" stroke-linecap="round" stroke-linejoin="round"/>
<path d="M677.505 223.584C693.856 223.584 708.108 229.08 718.618 237.89H718.951V209.364H636.059V237.89H636.392C646.902 229.067 661.154 223.584 677.505 223.584Z" fill="#853095"/>
<path d="M677.505 223.584C693.856 223.584 708.108 229.08 718.618 237.89H718.951V209.364H636.059V237.89H636.392C646.902 229.067 661.154 223.584 677.505 223.584Z" stroke="#853095" stroke-width="3.63311" stroke-linecap="round" stroke-linejoin="round"/>
<path d="M600.699 97.1963L613.74 113.092C615.716 115.507 613.999 119.13 610.875 119.13H590.522C587.398 119.13 585.681 115.507 587.657 113.092L600.699 97.1963Z" stroke="#853095" stroke-width="4.00343" stroke-linecap="round" stroke-linejoin="round"/>
<path d="M623.846 112.389V114.151C623.846 121.569 617.819 127.582 610.385 127.582H591.687C584.252 127.582 578.226 121.569 578.226 114.151V112.389C578.226 111.28 577.324 110.368 576.2 110.368C575.089 110.368 574.175 111.268 574.175 112.389V257.272H627.872V112.389C627.872 111.28 626.971 110.368 625.847 110.368C624.735 110.368 623.821 111.268 623.821 112.389H623.846Z" fill="#853095"/>
<path d="M623.846 112.389V114.151C623.846 121.569 617.819 127.582 610.385 127.582H591.687C584.252 127.582 578.226 121.569 578.226 114.151V112.389C578.226 111.28 577.324 110.368 576.2 110.368C575.089 110.368 574.175 111.268 574.175 112.389V257.272H627.872V112.389C627.872 111.28 626.971 110.368 625.847 110.368C624.735 110.368 623.821 111.268 623.821 112.389H623.846Z" stroke="#853095" stroke-width="3.63311" stroke-linecap="round" stroke-linejoin="round"/>
<path d="M753.751 97.1963L766.793 113.092C768.769 115.507 767.052 119.13 763.927 119.13H743.575C740.45 119.13 738.734 115.507 740.71 113.092L753.751 97.1963Z" stroke="#853095" stroke-width="4.00343" stroke-linecap="round" stroke-linejoin="round"/>
<path d="M776.889 112.389V114.151C776.889 121.569 770.862 127.582 763.427 127.582H744.729C737.295 127.582 731.268 121.569 731.268 114.151V112.389C731.268 111.28 730.367 110.368 729.243 110.368C728.131 110.368 727.217 111.268 727.217 112.389V257.272H780.915V112.389C780.915 111.28 780.013 110.368 778.889 110.368C777.778 110.368 776.864 111.268 776.864 112.389H776.889Z" fill="#853095"/>
<path d="M776.889 112.389V114.151C776.889 121.569 770.862 127.582 763.427 127.582H744.729C737.295 127.582 731.268 121.569 731.268 114.151V112.389C731.268 111.28 730.367 110.368 729.243 110.368C728.131 110.368 727.217 111.268 727.217 112.389V257.272H780.915V112.389C780.915 111.28 780.013 110.368 778.889 110.368C777.778 110.368 776.864 111.268 776.864 112.389H776.889Z" stroke="#853095" stroke-width="3.63311" stroke-linecap="round" stroke-linejoin="round"/>
<path d="M0.250732 325.34V292.945H1015.95L1016.55 292.908L1021.37 292.649C1022.95 292.391 1024.53 292.144 1026.12 291.922L1030.77 290.752C1036.89 288.904 1042.66 285.922 1047.71 281.966C1057.86 274.092 1064.88 262.386 1066.94 249.793C1067.14 248.204 1067.54 246.651 1067.52 245.037L1067.64 242.634L1067.72 241.426C1067.74 241.032 1067.72 240.416 1067.73 239.923V141.494L1067.77 140.545L1067.85 138.599C1067.96 133.411 1068.7 128.236 1069.77 123.147C1072 112.981 1076.15 103.197 1081.98 94.584C1087.8 85.9462 1095.21 78.4174 1103.75 72.4659C1112.29 66.502 1121.97 62.1399 1132.11 59.7002C1133.38 59.4044 1134.63 58.9978 1135.93 58.8253L1139.79 58.2215C1141.08 58.0367 1142.37 57.8149 1143.66 57.667L1147.55 57.4575L1151.45 57.2727C1152.15 57.2357 1152.6 57.2481 1153.14 57.2481H1438.83V89.6429H1153.14C1152.63 89.6429 1152.02 89.6305 1151.68 89.6675L1149.27 89.803L1146.87 89.9016C1146.08 90.0002 1145.29 90.1481 1144.49 90.2713L1142.12 90.6163C1141.32 90.6902 1140.57 90.9983 1139.79 91.1708C1127.35 94.1035 1116.11 101.953 1108.96 112.611C1105.36 117.91 1102.85 123.911 1101.48 130.133C1100.85 133.263 1100.37 136.43 1100.32 139.646L1100.25 140.854C1100.25 141.063 1100.21 141.223 1100.21 141.482V239.911C1100.21 240.465 1100.22 240.897 1100.2 241.55L1100.11 243.497L1099.91 247.39C1099.86 249.99 1099.34 252.553 1098.97 255.129C1097.26 265.393 1093.6 275.337 1088.25 284.258C1082.92 293.192 1075.92 301.102 1067.7 307.498C1059.5 313.905 1050.09 318.785 1040.09 321.779C1037.57 322.432 1035.04 323.122 1032.49 323.689C1029.93 324.108 1027.34 324.502 1024.76 324.859C1022.17 325.057 1019.58 325.167 1016.97 325.291L1015.99 325.328H0.250732V325.34Z" fill="#F4F4F4"/>
<path d="M3.67542 292.945H1015.94L1016.54 292.908L1021.36 292.649C1022.94 292.391 1024.52 292.144 1026.11 291.922L1030.76 290.752C1036.88 288.903 1042.65 285.922 1047.7 281.966C1057.85 274.092 1064.87 262.386 1066.93 249.793C1067.13 248.204 1067.53 246.651 1067.51 245.037L1067.63 242.634L1067.71 241.426C1067.73 241.032 1067.71 240.416 1067.72 239.923V141.494L1067.76 140.545L1067.84 138.599C1067.95 133.411 1068.7 128.236 1069.76 123.147C1071.99 112.981 1076.14 103.197 1081.97 94.584C1087.79 85.9462 1095.2 78.4174 1103.75 72.4659C1112.28 66.502 1121.96 62.1399 1132.1 59.7002C1133.37 59.4044 1134.62 58.9978 1135.92 58.8253L1139.78 58.2215C1141.07 58.0367 1142.36 57.8149 1143.65 57.667L1147.54 57.4575L1151.44 57.2727C1152.14 57.2357 1152.59 57.2481 1153.13 57.2481H1435.76" stroke="#853095" stroke-width="4.04346" stroke-linecap="round" stroke-linejoin="round"/>
<path d="M3.67542 325.339H1015.99L1016.96 325.29C1019.56 325.167 1022.16 325.068 1024.75 324.859C1027.34 324.489 1029.92 324.095 1032.49 323.688C1035.03 323.121 1037.55 322.443 1040.08 321.778C1050.08 318.771 1059.49 313.892 1067.69 307.497C1075.89 301.102 1082.9 293.191 1088.25 284.257C1093.59 275.336 1097.25 265.38 1098.97 255.128C1099.32 252.552 1099.86 249.989 1099.9 247.389L1100.1 243.496L1100.19 241.549C1100.21 240.896 1100.19 240.464 1100.2 239.91V141.493C1100.2 141.235 1100.22 141.074 1100.24 140.865L1100.31 139.657C1100.36 136.441 1100.84 133.275 1101.47 130.145C1102.84 123.91 1105.35 117.921 1108.96 112.623C1116.11 101.964 1127.34 94.1149 1139.78 91.1823C1140.56 91.0097 1141.31 90.7017 1142.12 90.6278L1144.49 90.2827C1145.28 90.1718 1146.07 90.0117 1146.86 89.9131L1149.27 89.8145L1151.67 89.679C1152.02 89.642 1152.64 89.6543 1153.13 89.6543H1435.76" stroke="#853095" stroke-width="4.04346" stroke-linecap="round" stroke-linejoin="round"/>
<path d="M10.132 309.136H1015.88C1053.49 309.136 1083.97 278.725 1083.97 241.204V141.37C1083.97 103.849 1114.45 73.4385 1152.05 73.4385H1435.76" stroke="#853095" stroke-width="4.00343" stroke-linecap="round" stroke-linejoin="round" stroke-dasharray="8.01 8.01"/>
<path d="M190.032 100.296C192.428 100.296 193.23 101.097 193.23 103.487C193.23 105.878 192.428 106.679 190.032 106.679C189.649 106.679 189.315 106.654 189.007 106.617C187.389 106.383 186.821 105.496 186.821 103.487C186.821 101.097 187.624 100.296 190.019 100.296H190.032Z" fill="#853095"/>
<path d="M190.032 100.296C192.428 100.296 193.23 101.097 193.23 103.487C193.23 105.878 192.428 106.679 190.032 106.679C189.649 106.679 189.315 106.654 189.007 106.617C187.389 106.383 186.821 105.496 186.821 103.487C186.821 101.097 187.624 100.296 190.019 100.296H190.032Z" stroke="#853095" stroke-width="4.56391" stroke-linecap="round" stroke-linejoin="round"/>
<path d="M184.788 171.407H180.614C179.626 171.407 178.922 170.606 179.033 169.62L181.589 147.219H189.333L186.776 169.62C186.665 170.606 185.776 171.407 184.788 171.407Z" fill="#853095"/>
<path d="M196.501 171.407H192.326C191.338 171.407 190.635 170.606 190.746 169.62L193.302 147.219H201.046L198.489 169.62C198.378 170.606 197.489 171.407 196.501 171.407Z" fill="#853095"/>
<path d="M186.833 100.974C186.833 98.4106 184.746 96.3281 182.177 96.3281C179.608 96.3281 177.521 98.4106 177.521 100.974C177.521 103.537 179.608 105.619 182.177 105.619C184.746 105.619 186.833 103.537 186.833 100.974Z" fill="#853095"/>
<path d="M174.698 157.04H206.252C206.252 157.04 207.327 115.095 190.222 114.812C173.117 114.529 174.698 157.04 174.698 157.04Z" fill="#853095"/>
<path d="M174.698 157.04H206.252C206.252 157.04 207.327 115.095 190.222 114.812C173.117 114.529 174.698 157.04 174.698 157.04Z" stroke="#853095" stroke-width="4.56391" stroke-linecap="round" stroke-linejoin="round"/>
<path d="M180.695 138.902C180.695 138.902 166.876 136.782 168.765 125.483C170.791 113.407 190.217 114.812 190.217 114.812C200.097 115.206 215.213 116.66 215.238 109.908C215.263 103.328 201.357 104.116 201.357 104.116" stroke="#853095" stroke-width="4.56391" stroke-linecap="round" stroke-linejoin="round"/>
<path d="M202.393 109.254H199.997C199.021 109.254 198.219 108.453 198.219 107.48V99.4209C198.219 98.4474 199.021 97.6465 199.997 97.6465H202.393C203.368 97.6465 204.171 98.4474 204.171 99.4209V107.48C204.171 108.453 203.381 109.254 202.393 109.254Z" fill="#853095"/>
<path d="M1155.45 239.282C1158.11 239.282 1159 240.169 1159 242.831C1159 245.493 1158.11 246.38 1155.45 246.38C1155.03 246.38 1154.64 246.355 1154.31 246.306C1152.52 246.047 1151.89 245.061 1151.89 242.831C1151.89 240.169 1152.78 239.282 1155.45 239.282Z" fill="#853095"/>
<path d="M1155.45 239.282C1158.11 239.282 1159 240.169 1159 242.831C1159 245.493 1158.11 246.38 1155.45 246.38C1155.03 246.38 1154.64 246.355 1154.31 246.306C1152.52 246.047 1151.89 245.061 1151.89 242.831C1151.89 240.169 1152.78 239.282 1155.45 239.282Z" stroke="#853095" stroke-width="5.06434" stroke-linecap="round" stroke-linejoin="round"/>
<path d="M1181.91 290.751H1167.08C1166.59 290.751 1166.18 291.158 1166.18 291.65V300.436C1166.18 300.929 1166.59 301.336 1167.08 301.336H1181.91C1182.41 301.336 1182.81 300.929 1182.81 300.436V291.65C1182.81 291.158 1182.41 290.751 1181.91 290.751Z" fill="#853095"/>
<path d="M1181.91 290.751H1167.08C1166.59 290.751 1166.18 291.158 1166.18 291.65V300.436C1166.18 300.929 1166.59 301.336 1167.08 301.336H1181.91C1182.41 301.336 1182.81 300.929 1182.81 300.436V291.65C1182.81 291.158 1182.41 290.751 1181.91 290.751Z" stroke="#853095" stroke-width="5.06434" stroke-linecap="round" stroke-linejoin="round"/>
<path d="M1174.49 283.839C1176.7 283.839 1178.49 285.626 1178.49 287.831V291.725C1178.49 292.082 1178.2 292.378 1177.84 292.378H1171.15C1170.79 292.378 1170.49 292.082 1170.49 291.725V287.831C1170.49 285.626 1172.28 283.839 1174.49 283.839Z" stroke="#853095" stroke-width="2.25193" stroke-linecap="round" stroke-linejoin="round"/>
<path d="M1142.43 309.309L1142.51 276.076H1168.4V309.309H1155.53H1142.43Z" fill="#853095"/>
<path d="M1142.43 309.309L1142.51 276.076H1168.4V309.309H1155.53H1142.43Z" stroke="#853095" stroke-width="4.56391" stroke-linecap="round" stroke-linejoin="round"/>
<path d="M1141.89 262.583V276.064C1135.77 276.027 1130.85 271.073 1130.85 264.974V262.743C1130.85 256.089 1136.26 250.692 1142.93 250.692H1167.93C1174.6 250.692 1180.01 256.089 1180.01 262.743V282.04H1168.38V262.571" fill="#F4F4F4"/>
<path d="M1141.89 262.583V276.064C1135.77 276.027 1130.85 271.073 1130.85 264.974V262.743C1130.85 256.089 1136.26 250.692 1142.93 250.692H1167.93C1174.6 250.692 1180.01 256.089 1180.01 262.743V282.04H1168.38V262.571" stroke="#853095" stroke-width="4.56391" stroke-linecap="round" stroke-linejoin="round"/>
<path d="M1152.6 239.874L1158.82 235.992" stroke="#853095" stroke-width="5.06434" stroke-linecap="round" stroke-linejoin="round"/>
<path d="M781.383 321.286V132.129C781.383 129.837 783.248 127.977 785.545 127.977H876.057C878.354 127.977 880.219 129.837 880.219 132.129V321.286" fill="#F4F4F4"/>
<path d="M781.383 321.286V132.129C781.383 129.837 783.248 127.977 785.545 127.977H876.057C878.354 127.977 880.219 129.837 880.219 132.129V321.286" stroke="#853095" stroke-width="4.00343" stroke-linecap="round" stroke-linejoin="round"/>
<path d="M793.781 243.891H833.56" stroke="#853095" stroke-width="4.00343" stroke-linecap="round" stroke-linejoin="round"/>
<path d="M793.781 230.299H867.831" stroke="#853095" stroke-width="4.00343" stroke-linecap="round" stroke-linejoin="round"/>
<path d="M793.781 217.028H867.831" stroke="#853095" stroke-width="4.00343" stroke-linecap="round" stroke-linejoin="round"/>
<path d="M793.781 203.77H867.831" stroke="#853095" stroke-width="4.00343" stroke-linecap="round" stroke-linejoin="round"/>
<path d="M793.781 190.499H867.831" stroke="#853095" stroke-width="4.00343" stroke-linecap="round" stroke-linejoin="round"/>
<path d="M793.781 296.617H833.56" stroke="#853095" stroke-width="4.00343" stroke-linecap="round" stroke-linejoin="round"/>
<path d="M793.781 283.358H833.56" stroke="#853095" stroke-width="4.00343" stroke-linecap="round" stroke-linejoin="round"/>
<path d="M793.781 270.087H833.56" stroke="#853095" stroke-width="4.00343" stroke-linecap="round" stroke-linejoin="round"/>
<path d="M517.722 323.368V252.429C517.722 251 519.464 249.842 521.6 249.842H781.479V323.01" fill="#F4F4F4"/>
<path d="M517.722 323.368V252.429C517.722 251 519.464 249.842 521.6 249.842H781.479V323.01" stroke="#853095" stroke-width="5.00429" stroke-linecap="round" stroke-linejoin="round"/>
<path d="M793.781 256.829H833.56" stroke="#853095" stroke-width="4.00343" stroke-linecap="round" stroke-linejoin="round"/>
<path d="M793.781 177.24H867.831" stroke="#853095" stroke-width="4.00343" stroke-linecap="round" stroke-linejoin="round"/>
<path d="M793.781 163.97H867.831" stroke="#853095" stroke-width="4.00343" stroke-linecap="round" stroke-linejoin="round"/>
<path d="M793.781 149.171H867.831" stroke="#853095" stroke-width="4.00343" stroke-linecap="round" stroke-linejoin="round"/>
<path d="M616.608 265.553V309.506" stroke="#853095" stroke-width="4.00343" stroke-linecap="round" stroke-linejoin="round"/>
<path d="M629.894 265.553V309.506" stroke="#853095" stroke-width="4.00343" stroke-linecap="round" stroke-linejoin="round"/>
<path d="M643.198 265.553V309.506" stroke="#853095" stroke-width="4.00343" stroke-linecap="round" stroke-linejoin="round"/>
<path d="M656.484 265.553V309.506" stroke="#853095" stroke-width="4.00343" stroke-linecap="round" stroke-linejoin="round"/>
<path d="M669.79 265.553V309.506" stroke="#853095" stroke-width="4.00343" stroke-linecap="round" stroke-linejoin="round"/>
<path d="M683.076 265.553V309.506" stroke="#853095" stroke-width="4.00343" stroke-linecap="round" stroke-linejoin="round"/>
<path d="M696.371 265.553V309.506" stroke="#853095" stroke-width="4.00343" stroke-linecap="round" stroke-linejoin="round"/>
<path d="M709.677 265.553V309.506" stroke="#853095" stroke-width="4.00343" stroke-linecap="round" stroke-linejoin="round"/>
<path d="M722.961 265.553V309.506" stroke="#853095" stroke-width="4.00343" stroke-linecap="round" stroke-linejoin="round"/>
<path d="M736.267 265.553V309.506" stroke="#853095" stroke-width="4.00343" stroke-linecap="round" stroke-linejoin="round"/>
<path d="M749.553 265.553V309.506" stroke="#853095" stroke-width="4.00343" stroke-linecap="round" stroke-linejoin="round"/>
<path d="M762.858 265.553V309.506" stroke="#853095" stroke-width="4.00343" stroke-linecap="round" stroke-linejoin="round"/>
<path d="M536.343 265.553V309.506" stroke="#853095" stroke-width="4.00343" stroke-linecap="round" stroke-linejoin="round"/>
<path d="M549.648 265.553V309.506" stroke="#853095" stroke-width="4.00343" stroke-linecap="round" stroke-linejoin="round"/>
<path d="M562.934 265.553V309.506" stroke="#853095" stroke-width="4.00343" stroke-linecap="round" stroke-linejoin="round"/>
<path d="M576.24 265.553V309.506" stroke="#853095" stroke-width="4.00343" stroke-linecap="round" stroke-linejoin="round"/>
<path d="M589.526 265.553V309.506" stroke="#853095" stroke-width="4.00343" stroke-linecap="round" stroke-linejoin="round"/>
<path d="M602.82 265.553V309.506" stroke="#853095" stroke-width="4.00343" stroke-linecap="round" stroke-linejoin="round"/>
<path d="M837.892 242.362H978.212C979.669 242.362 980.867 243.545 980.867 245.012V324.489H835.25V245.012C835.25 243.558 836.435 242.362 837.905 242.362H837.892Z" fill="#F4F4F4"/>
<path d="M837.892 242.362H978.212C979.669 242.362 980.867 243.545 980.867 245.012V324.489H835.25V245.012C835.25 243.558 836.435 242.362 837.905 242.362H837.892Z" stroke="#853095" stroke-width="4.00343" stroke-linecap="round" stroke-linejoin="round"/>
<path d="M576.038 200.308H524.7C520.847 200.308 517.722 203.425 517.722 207.27V226.073C517.722 229.918 520.847 233.035 524.7 233.035H576.038C579.892 233.035 583.016 229.918 583.016 226.073V207.27C583.016 203.425 579.892 200.308 576.038 200.308Z" fill="#F4F4F4"/>
<path d="M576.038 200.308H524.7C520.847 200.308 517.722 203.425 517.722 207.27V226.073C517.722 229.918 520.847 233.035 524.7 233.035H576.038C579.892 233.035 583.016 229.918 583.016 226.073V207.27C583.016 203.425 579.892 200.308 576.038 200.308Z" stroke="#853095" stroke-width="4.00343" stroke-linecap="round" stroke-linejoin="round"/>
<path d="M572.358 224.742C573.247 224.742 573.976 224.015 573.976 223.128C573.976 222.241 573.247 221.514 572.358 221.514C571.469 221.514 570.74 222.241 570.74 223.128C570.74 224.015 571.469 224.742 572.358 224.742Z" fill="#853095"/>
<path d="M565.963 249.423V233.404" stroke="#853095" stroke-width="4.00343" stroke-linecap="round" stroke-linejoin="round"/>
<path d="M533.863 248.277V233.392" stroke="#853095" stroke-width="4.00343" stroke-linecap="round" stroke-linejoin="round"/>
<path d="M880.719 282.052H872.618" stroke="#853095" stroke-width="4.04346" stroke-linecap="round" stroke-linejoin="round"/>
<path d="M880.719 269.582H872.618" stroke="#853095" stroke-width="4.04346" stroke-linecap="round" stroke-linejoin="round"/>
<path d="M880.719 257.112H872.618" stroke="#853095" stroke-width="4.04346" stroke-linecap="round" stroke-linejoin="round"/>
<path d="M861.23 282.052H853.128" stroke="#853095" stroke-width="4.04346" stroke-linecap="round" stroke-linejoin="round"/>
<path d="M880.719 294.238H872.618" stroke="#853095" stroke-width="4.04346" stroke-linecap="round" stroke-linejoin="round"/>
<path d="M861.23 294.238H853.128" stroke="#853095" stroke-width="4.04346" stroke-linecap="round" stroke-linejoin="round"/>
<path d="M880.719 306.339H872.618" stroke="#853095" stroke-width="4.04346" stroke-linecap="round" stroke-linejoin="round"/>
<path d="M861.23 306.339H853.128" stroke="#853095" stroke-width="4.04346" stroke-linecap="round" stroke-linejoin="round"/>
<path d="M861.23 269.582H853.128" stroke="#853095" stroke-width="4.04346" stroke-linecap="round" stroke-linejoin="round"/>
<path d="M861.23 257.112H853.128" stroke="#853095" stroke-width="4.04346" stroke-linecap="round" stroke-linejoin="round"/>
<path d="M921.851 282.052H913.749" stroke="#853095" stroke-width="4.04346" stroke-linecap="round" stroke-linejoin="round"/>
<path d="M921.851 269.582H913.749" stroke="#853095" stroke-width="4.04346" stroke-linecap="round" stroke-linejoin="round"/>
<path d="M921.851 257.112H913.749" stroke="#853095" stroke-width="4.04346" stroke-linecap="round" stroke-linejoin="round"/>
<path d="M902.349 282.052H894.26" stroke="#853095" stroke-width="4.04346" stroke-linecap="round" stroke-linejoin="round"/>
<path d="M921.851 294.238H913.749" stroke="#853095" stroke-width="4.04346" stroke-linecap="round" stroke-linejoin="round"/>
<path d="M902.349 294.238H894.26" stroke="#853095" stroke-width="4.04346" stroke-linecap="round" stroke-linejoin="round"/>
<path d="M921.851 306.339H913.749" stroke="#853095" stroke-width="4.04346" stroke-linecap="round" stroke-linejoin="round"/>
<path d="M902.349 306.339H894.26" stroke="#853095" stroke-width="4.04346" stroke-linecap="round" stroke-linejoin="round"/>
<path d="M902.349 269.582H894.26" stroke="#853095" stroke-width="4.04346" stroke-linecap="round" stroke-linejoin="round"/>
<path d="M902.349 257.112H894.26" stroke="#853095" stroke-width="4.04346" stroke-linecap="round" stroke-linejoin="round"/>
<path d="M962.96 282.052H954.871" stroke="#853095" stroke-width="4.04346" stroke-linecap="round" stroke-linejoin="round"/>
<path d="M962.96 269.582H954.871" stroke="#853095" stroke-width="4.04346" stroke-linecap="round" stroke-linejoin="round"/>
<path d="M962.96 257.112H954.871" stroke="#853095" stroke-width="4.04346" stroke-linecap="round" stroke-linejoin="round"/>
<path d="M943.473 282.052H935.371" stroke="#853095" stroke-width="4.04346" stroke-linecap="round" stroke-linejoin="round"/>
<path d="M962.96 294.238H954.871" stroke="#853095" stroke-width="4.04346" stroke-linecap="round" stroke-linejoin="round"/>
<path d="M943.473 294.238H935.371" stroke="#853095" stroke-width="4.04346" stroke-linecap="round" stroke-linejoin="round"/>
<path d="M962.96 306.339H954.871" stroke="#853095" stroke-width="4.04346" stroke-linecap="round" stroke-linejoin="round"/>
<path d="M943.473 306.339H935.371" stroke="#853095" stroke-width="4.04346" stroke-linecap="round" stroke-linejoin="round"/>
<path d="M943.473 269.582H935.371" stroke="#853095" stroke-width="4.04346" stroke-linecap="round" stroke-linejoin="round"/>
<path d="M943.473 257.112H935.371" stroke="#853095" stroke-width="4.04346" stroke-linecap="round" stroke-linejoin="round"/>
<path d="M1192.49 279.009H1217.29C1232.88 279.009 1247.26 270.679 1254.98 257.174L1291.75 192.914L1328.51 257.174C1336.23 270.679 1350.62 279.009 1366.2 279.009H1409.43" stroke="#853095" stroke-width="4.00343" stroke-miterlimit="10" stroke-linecap="round"/>
<path d="M1291.75 184.979C1296.13 184.979 1299.69 188.527 1299.69 192.902C1299.69 197.276 1296.13 200.825 1291.75 200.825C1287.36 200.825 1283.81 197.276 1283.81 192.902C1283.81 188.527 1287.36 184.979 1291.75 184.979Z" fill="#F4F4F4"/>
<path d="M1291.75 184.979C1296.13 184.979 1299.69 188.527 1299.69 192.902C1299.69 197.276 1296.13 200.825 1291.75 200.825C1287.36 200.825 1283.81 197.276 1283.81 192.902C1283.81 188.527 1287.36 184.979 1291.75 184.979Z" stroke="#853095" stroke-width="4.00343" stroke-linecap="round" stroke-linejoin="round"/>
<path d="M433.419 141.083C433.822 128.161 424.89 112.67 422.332 108.496C422.026 107.999 421.286 107.999 420.98 108.496C418.422 112.654 409.479 128.161 409.897 141.083C410.38 156.109 432.952 156.109 433.435 141.083H433.419Z" fill="#853095"/>
<path d="M433.419 141.083C433.822 128.161 424.89 112.67 422.332 108.496C422.026 107.999 421.286 107.999 420.98 108.496C418.422 112.654 409.479 128.161 409.897 141.083C410.38 156.109 432.952 156.109 433.435 141.083H433.419Z" stroke="#853095" stroke-width="5.26751" stroke-linecap="round" stroke-linejoin="round"/>
<path d="M421.646 145.659V164.424" stroke="#853095" stroke-width="5.26751" stroke-linecap="round" stroke-linejoin="round"/>
<path d="M393.377 124.429C393.924 107.075 381.922 86.2708 378.479 80.6852C378.062 80.0112 377.079 80.0112 376.66 80.6852C373.217 86.2708 361.217 107.075 361.764 124.429C362.407 144.607 392.718 144.607 393.361 124.429H393.377Z" fill="#853095"/>
<path d="M393.377 124.429C393.924 107.075 381.922 86.2708 378.479 80.6852C378.062 80.0112 377.079 80.0112 376.66 80.6852C373.217 86.2708 361.217 107.075 361.764 124.429C362.407 144.607 392.718 144.607 393.361 124.429H393.377Z" stroke="#853095" stroke-width="5.26751" stroke-linecap="round" stroke-linejoin="round"/>
<path d="M376.312 130.578V155.764" stroke="#853095" stroke-width="5.26751" stroke-linecap="round" stroke-linejoin="round"/>
<path d="M130.9 151.599H146.251V86.2207H130.9V151.599Z" fill="#853095"/>
<path d="M130.9 151.599H146.251V86.2207H130.9V151.599Z" stroke="#853095" stroke-width="4.00343" stroke-linecap="round" stroke-linejoin="round"/>
<path d="M144.846 60.5771H132.306C130.506 60.5771 129.049 62.0324 129.049 63.8265V76.3383C129.049 78.1337 130.506 79.5877 132.306 79.5877H144.846C146.644 79.5877 148.103 78.1337 148.103 76.3383V63.8265C148.103 62.0324 146.644 60.5771 144.846 60.5771Z" fill="#853095"/>
<path d="M144.846 60.5771H132.306C130.506 60.5771 129.049 62.0324 129.049 63.8265V76.3383C129.049 78.1337 130.506 79.5877 132.306 79.5877H144.846C146.644 79.5877 148.103 78.1337 148.103 76.3383V63.8265C148.103 62.0324 146.644 60.5771 144.846 60.5771Z" stroke="#853095" stroke-width="4.00343" stroke-linecap="round" stroke-linejoin="round"/>
<path d="M138.575 67.0068C136.872 67.0068 135.492 68.3844 135.492 70.0824C135.492 71.7816 136.872 73.158 138.575 73.158C140.278 73.158 141.657 71.7816 141.657 70.0824C141.657 68.3844 140.278 67.0068 138.575 67.0068Z" fill="#F4F4F4"/>
<path d="M138.575 67.0068C136.872 67.0068 135.492 68.3844 135.492 70.0824C135.492 71.7816 136.872 73.158 138.575 73.158C140.278 73.158 141.657 71.7816 141.657 70.0824C141.657 68.3844 140.278 67.0068 138.575 67.0068Z" stroke="#F4F4F4" stroke-width="2.85545" stroke-linecap="round" stroke-linejoin="round"/>
<path d="M138.62 35.9785H138.529L134.866 41.7329H142.283L138.62 35.9785Z" fill="#853095"/>
<path d="M138.62 35.9785H138.529L134.866 41.7329H142.283L138.62 35.9785Z" stroke="#853095" stroke-width="4.00343" stroke-linecap="round" stroke-linejoin="round"/>
<path d="M146.25 54.2388L142.255 47.9632H142.283V41.7344H134.866V47.9632H134.894L130.899 54.2388H146.25Z" stroke="#853095" stroke-width="4.00343" stroke-linecap="round" stroke-linejoin="round"/>
<path d="M124.574 96.5345H35.7382C32.4432 96.5345 29.7732 93.8692 29.7732 90.5829V89.1523V140.038C29.7732 146.423 34.9602 151.598 41.3599 151.598H124.574" stroke="#853095" stroke-width="4.00343" stroke-linecap="round" stroke-linejoin="round"/>
<path d="M72.0679 111.019C71.0935 111.019 70.3031 111.807 70.3031 112.779V118.015H73.8327V112.779C73.8327 111.807 73.0423 111.019 72.0679 111.019Z" fill="#853095"/>
<path d="M72.0679 111.019C71.0935 111.019 70.3031 111.807 70.3031 112.779V118.015H73.8327V112.779C73.8327 111.807 73.0423 111.019 72.0679 111.019Z" stroke="#853095" stroke-width="2.85545" stroke-linecap="round" stroke-linejoin="round"/>
<path d="M86.8582 110.977C85.8838 110.977 85.0934 111.765 85.0934 112.737V117.973H88.623V112.737C88.623 111.765 87.8326 110.977 86.8582 110.977Z" fill="#853095"/>
<path d="M86.8582 110.977C85.8838 110.977 85.0934 111.765 85.0934 112.737V117.973H88.623V112.737C88.623 111.765 87.8326 110.977 86.8582 110.977Z" stroke="#853095" stroke-width="2.85545" stroke-linecap="round" stroke-linejoin="round"/>
<path d="M116.53 111.019C115.556 111.019 114.765 111.807 114.765 112.779V118.015H118.295V112.779C118.295 111.807 117.504 111.019 116.53 111.019Z" fill="#853095"/>
<path d="M116.53 111.019C115.556 111.019 114.765 111.807 114.765 112.779V118.015H118.295V112.779C118.295 111.807 117.504 111.019 116.53 111.019Z" stroke="#853095" stroke-width="2.85545" stroke-linecap="round" stroke-linejoin="round"/>
<path d="M101.657 111.019C100.683 111.019 99.8923 111.807 99.8923 112.779V118.015H103.422V112.779C103.422 111.807 102.632 111.019 101.657 111.019Z" fill="#853095"/>
<path d="M101.657 111.019C100.683 111.019 99.8923 111.807 99.8923 112.779V118.015H103.422V112.779C103.422 111.807 102.632 111.019 101.657 111.019Z" stroke="#853095" stroke-width="2.85545" stroke-linecap="round" stroke-linejoin="round"/>
<path d="M72.0679 129.488C71.0935 129.488 70.3031 130.277 70.3031 131.249V136.485H73.8327V131.249C73.8327 130.277 73.0423 129.488 72.0679 129.488Z" fill="#853095"/>
<path d="M72.0679 129.488C71.0935 129.488 70.3031 130.277 70.3031 131.249V136.485H73.8327V131.249C73.8327 130.277 73.0423 129.488 72.0679 129.488Z" stroke="#853095" stroke-width="2.85545" stroke-linecap="round" stroke-linejoin="round"/>
<path d="M57.4888 111.019C56.5144 111.019 55.724 111.807 55.724 112.779V118.015H59.2536V112.779C59.2536 111.807 58.4632 111.019 57.4888 111.019Z" fill="#853095"/>
<path d="M57.4888 111.019C56.5144 111.019 55.724 111.807 55.724 112.779V118.015H59.2536V112.779C59.2536 111.807 58.4632 111.019 57.4888 111.019Z" stroke="#853095" stroke-width="2.85545" stroke-linecap="round" stroke-linejoin="round"/>
<path d="M57.4888 129.488C56.5144 129.488 55.724 130.277 55.724 131.249V136.485H59.2536V131.249C59.2536 130.277 58.4632 129.488 57.4888 129.488Z" fill="#853095"/>
<path d="M57.4888 129.488C56.5144 129.488 55.724 130.277 55.724 131.249V136.485H59.2536V131.249C59.2536 130.277 58.4632 129.488 57.4888 129.488Z" stroke="#853095" stroke-width="2.85545" stroke-linecap="round" stroke-linejoin="round"/>
<path d="M42.9381 111.019C41.9637 111.019 41.1733 111.807 41.1733 112.779V118.015H44.7029V112.779C44.7029 111.807 43.9126 111.019 42.9381 111.019Z" fill="#853095"/>
<path d="M42.9381 111.019C41.9637 111.019 41.1733 111.807 41.1733 112.779V118.015H44.7029V112.779C44.7029 111.807 43.9126 111.019 42.9381 111.019Z" stroke="#853095" stroke-width="2.85545" stroke-linecap="round" stroke-linejoin="round"/>
<path d="M42.9381 129.488C41.9637 129.488 41.1733 130.277 41.1733 131.249V136.485H44.7029V131.249C44.7029 130.277 43.9126 129.488 42.9381 129.488Z" fill="#853095"/>
<path d="M42.9381 129.488C41.9637 129.488 41.1733 130.277 41.1733 131.249V136.485H44.7029V131.249C44.7029 130.277 43.9126 129.488 42.9381 129.488Z" stroke="#853095" stroke-width="2.85545" stroke-linecap="round" stroke-linejoin="round"/>
<path d="M86.8582 129.445C85.8838 129.445 85.0934 130.234 85.0934 131.206V136.442H88.623V131.206C88.623 130.234 87.8326 129.445 86.8582 129.445Z" fill="#853095"/>
<path d="M86.8582 129.445C85.8838 129.445 85.0934 130.234 85.0934 131.206V136.442H88.623V131.206C88.623 130.234 87.8326 129.445 86.8582 129.445Z" stroke="#853095" stroke-width="2.85545" stroke-linecap="round" stroke-linejoin="round"/>
<path d="M116.53 129.488C115.556 129.488 114.765 130.277 114.765 131.249V136.485H118.295V131.249C118.295 130.277 117.504 129.488 116.53 129.488Z" fill="#853095"/>
<path d="M116.53 129.488C115.556 129.488 114.765 130.277 114.765 131.249V136.485H118.295V131.249C118.295 130.277 117.504 129.488 116.53 129.488Z" stroke="#853095" stroke-width="2.85545" stroke-linecap="round" stroke-linejoin="round"/>
<path d="M101.657 129.488C100.683 129.488 99.8923 130.277 99.8923 131.249V136.485H103.422V131.249C103.422 130.277 102.632 129.488 101.657 129.488Z" fill="#853095"/>
<path d="M101.657 129.488C100.683 129.488 99.8923 130.277 99.8923 131.249V136.485H103.422V131.249C103.422 130.277 102.632 129.488 101.657 129.488Z" stroke="#853095" stroke-width="2.85545" stroke-linecap="round" stroke-linejoin="round"/>
<path d="M241.048 151.39H252.183V80.7031H235.587V145.941C235.587 148.95 238.032 151.39 241.048 151.39Z" stroke="#853095" stroke-width="4.00343" stroke-linecap="round" stroke-linejoin="round"/>
<path d="M324.149 151.39H335.284C338.3 151.39 340.745 148.95 340.745 145.941V80.7031H324.149V151.39Z" stroke="#853095" stroke-width="4.00343" stroke-linecap="round" stroke-linejoin="round"/>
<path d="M258.481 96.3252H317.611" stroke="#853095" stroke-width="4.00343" stroke-linecap="round" stroke-linejoin="round"/>
<path d="M258.481 151.389H317.611" stroke="#853095" stroke-width="4.00343" stroke-linecap="round" stroke-linejoin="round"/>
<path d="M243.884 63.3867C239.301 63.3867 235.586 67.092 235.586 71.6647V72.3153C235.586 73.2198 236.321 73.9542 237.228 73.9542H250.539C251.447 73.9542 252.182 73.2198 252.182 72.3153V71.6647C252.182 67.092 248.467 63.3867 243.884 63.3867Z" fill="#853095"/>
<path d="M243.884 63.3867C239.301 63.3867 235.586 67.092 235.586 71.6647V72.3153C235.586 73.2198 236.321 73.9542 237.228 73.9542H250.539C251.447 73.9542 252.182 73.2198 252.182 72.3153V71.6647C252.182 67.092 248.467 63.3867 243.884 63.3867Z" stroke="#853095" stroke-width="4.00343" stroke-linecap="round" stroke-linejoin="round"/>
<path d="M332.447 63.3867C327.864 63.3867 324.149 67.092 324.149 71.6647V72.3153C324.149 73.2198 324.884 73.9542 325.792 73.9542H339.103C340.01 73.9542 340.745 73.2198 340.745 72.3153V71.6647C340.745 67.092 337.03 63.3867 332.447 63.3867Z" fill="#853095"/>
<path d="M332.447 63.3867C327.864 63.3867 324.149 67.092 324.149 71.6647V72.3153C324.149 73.2198 324.884 73.9542 325.792 73.9542H339.103C340.01 73.9542 340.745 73.2198 340.745 72.3153V71.6647C340.745 67.092 337.03 63.3867 332.447 63.3867Z" stroke="#853095" stroke-width="4.00343" stroke-linecap="round" stroke-linejoin="round"/>
<path d="M265.89 110.81C264.916 110.81 264.125 111.598 264.125 112.57V117.806H267.655V112.57C267.655 111.598 266.864 110.81 265.89 110.81Z" fill="#853095"/>
<path d="M265.89 110.81C264.916 110.81 264.125 111.598 264.125 112.57V117.806H267.655V112.57C267.655 111.598 266.864 110.81 265.89 110.81Z" stroke="#853095" stroke-width="2.85545" stroke-linecap="round" stroke-linejoin="round"/>
<path d="M280.682 110.767C279.707 110.767 278.917 111.555 278.917 112.527V117.763H282.446V112.527C282.446 111.555 281.656 110.767 280.682 110.767Z" fill="#853095"/>
<path d="M280.682 110.767C279.707 110.767 278.917 111.555 278.917 112.527V117.763H282.446V112.527C282.446 111.555 281.656 110.767 280.682 110.767Z" stroke="#853095" stroke-width="2.85545" stroke-linecap="round" stroke-linejoin="round"/>
<path d="M295.48 110.81C294.506 110.81 293.716 111.598 293.716 112.57V117.806H297.245V112.57C297.245 111.598 296.455 110.81 295.48 110.81Z" fill="#853095"/>
<path d="M295.48 110.81C294.506 110.81 293.716 111.598 293.716 112.57V117.806H297.245V112.57C297.245 111.598 296.455 110.81 295.48 110.81Z" stroke="#853095" stroke-width="2.85545" stroke-linecap="round" stroke-linejoin="round"/>
<path d="M310.3 110.81C309.326 110.81 308.535 111.598 308.535 112.57V117.806H312.065V112.57C312.065 111.598 311.275 110.81 310.3 110.81Z" fill="#853095"/>
<path d="M310.3 110.81C309.326 110.81 308.535 111.598 308.535 112.57V117.806H312.065V112.57C312.065 111.598 311.275 110.81 310.3 110.81Z" stroke="#853095" stroke-width="2.85545" stroke-linecap="round" stroke-linejoin="round"/>
<path d="M265.89 129.277C264.916 129.277 264.125 130.066 264.125 131.038V136.274H267.655V131.038C267.655 130.066 266.864 129.277 265.89 129.277Z" fill="#853095"/>
<path d="M265.89 129.277C264.916 129.277 264.125 130.066 264.125 131.038V136.274H267.655V131.038C267.655 130.066 266.864 129.277 265.89 129.277Z" stroke="#853095" stroke-width="2.85545" stroke-linecap="round" stroke-linejoin="round"/>
<path d="M280.681 129.234C279.707 129.234 278.917 130.023 278.917 130.995V136.231H282.446V130.995C282.446 130.023 281.656 129.234 280.681 129.234Z" fill="#853095"/>
<path d="M280.681 129.234C279.707 129.234 278.917 130.023 278.917 130.995V136.231H282.446V130.995C282.446 130.023 281.656 129.234 280.681 129.234Z" stroke="#853095" stroke-width="2.85545" stroke-linecap="round" stroke-linejoin="round"/>
<path d="M310.352 129.277C309.378 129.277 308.587 130.066 308.587 131.038V136.274H312.117V131.038C312.117 130.066 311.327 129.277 310.352 129.277Z" fill="#853095"/>
<path d="M310.352 129.277C309.378 129.277 308.587 130.066 308.587 131.038V136.274H312.117V131.038C312.117 130.066 311.327 129.277 310.352 129.277Z" stroke="#853095" stroke-width="2.85545" stroke-linecap="round" stroke-linejoin="round"/>
<path d="M295.48 129.277C294.506 129.277 293.716 130.066 293.716 131.038V136.274H297.245V131.038C297.245 130.066 296.455 129.277 295.48 129.277Z" fill="#853095"/>
<path d="M295.48 129.277C294.506 129.277 293.716 130.066 293.716 131.038V136.274H297.245V131.038C297.245 130.066 296.455 129.277 295.48 129.277Z" stroke="#853095" stroke-width="2.85545" stroke-linecap="round" stroke-linejoin="round"/>
<path d="M452.569 50.0641H430.401C420.707 50.5077 417.965 47.1315 417.965 43.7429C417.965 40.3543 420.719 36.7932 426.746 36.5961C426.746 36.5961 426.906 29.9175 434.341 27.3791C439.651 25.5678 446.345 27.0588 450.05 32.8994C458.51 31.7781 463.116 35.6226 464.055 39.6766C465.166 44.4822 462.968 50.0641 452.569 50.0641Z" fill="#F4F4F4"/>
<path d="M452.569 50.0641H430.401C420.707 50.5077 417.965 47.1315 417.965 43.7429C417.965 40.3543 420.719 36.7932 426.746 36.5961C426.746 36.5961 426.906 29.9175 434.341 27.3791C439.651 25.5678 446.345 27.0588 450.05 32.8994C458.51 31.7781 463.116 35.6226 464.055 39.6766C465.166 44.4822 462.968 50.0641 452.569 50.0641Z" stroke="#853095" stroke-width="4.00343" stroke-linecap="round" stroke-linejoin="round"/>
<path d="M467.634 90.2593C467.634 84.9855 471.907 79.4405 481.293 79.1448C481.293 79.1448 481.54 68.7449 493.124 64.8019C501.398 61.9924 511.809 64.309 517.577 73.3904C525.629 73.3904 535.781 76.2121 540.338 85.8973C554.034 85.8973 553.614 100.105 540.338 100.105H476.983C471.61 100.105 467.35 95.6194 467.621 90.2716L467.634 90.2593Z" fill="#F4F4F4"/>
<path d="M467.634 90.2593C467.634 84.9855 471.907 79.4405 481.293 79.1448C481.293 79.1448 481.54 68.7449 493.124 64.8019C501.398 61.9924 511.809 64.309 517.577 73.3904C525.629 73.3904 535.781 76.2121 540.338 85.8973C554.034 85.8973 553.614 100.105 540.338 100.105H476.983C471.61 100.105 467.35 95.6194 467.621 90.2716L467.634 90.2593Z" stroke="#853095" stroke-width="4.00343" stroke-linecap="round" stroke-linejoin="round"/>
<path d="M977.289 177.598H955.121C945.426 178.042 942.684 174.666 942.684 171.277C942.684 167.888 945.438 164.327 951.465 164.13C951.465 164.13 951.626 157.452 959.06 154.913C964.371 153.102 971.064 154.593 974.769 160.434C983.229 159.312 987.836 163.157 988.774 167.211C989.886 172.016 987.687 177.598 977.289 177.598Z" fill="#F4F4F4"/>
<path d="M977.289 177.598H955.121C945.426 178.042 942.684 174.666 942.684 171.277C942.684 167.888 945.438 164.327 951.465 164.13C951.465 164.13 951.626 157.452 959.06 154.913C964.371 153.102 971.064 154.593 974.769 160.434C983.229 159.312 987.836 163.157 988.774 167.211C989.886 172.016 987.687 177.598 977.289 177.598Z" stroke="#853095" stroke-width="4.00343" stroke-linecap="round" stroke-linejoin="round"/>
<path d="M1362.15 217.537C1361.2 217.271 1360.23 217.195 1359.29 217.271C1359.9 215.592 1360.47 213.892 1360.96 212.144C1361.44 210.398 1361.84 208.649 1362.19 206.899C1362.95 207.446 1363.82 207.88 1364.78 208.146C1369.16 209.363 1373.71 206.798 1374.93 202.428C1376.15 198.059 1373.58 193.515 1369.2 192.299C1367.26 191.759 1365.29 191.966 1363.58 192.742C1363.57 189.124 1363.29 185.542 1362.74 182.018C1362.74 182.019 1362.75 182.022 1362.76 182.024C1367.13 183.24 1371.69 180.675 1372.91 176.305C1374.13 171.935 1371.56 167.391 1367.18 166.175C1364.23 165.356 1361.21 166.256 1359.18 168.262C1357.93 164.876 1356.43 161.591 1354.7 158.437C1358.07 158.19 1361.09 155.881 1362.05 152.448C1363.27 148.078 1360.7 143.533 1356.32 142.317C1352.41 141.229 1348.36 143.173 1346.67 146.721C1344.37 143.984 1341.86 141.406 1339.15 139.026C1341.29 138.055 1343.01 136.182 1343.69 133.747C1344.91 129.377 1342.34 124.832 1337.96 123.616C1333.58 122.399 1329.03 124.964 1327.81 129.334C1327.68 129.802 1327.6 130.271 1327.55 130.738C1324.47 128.968 1321.22 127.413 1317.82 126.097C1318.82 125.119 1319.59 123.882 1319.99 122.442C1321.21 118.072 1318.64 113.528 1314.27 112.311C1309.89 111.094 1305.33 113.659 1304.11 118.029C1303.71 119.469 1303.73 120.926 1304.08 122.278C1300.49 121.654 1296.91 121.309 1293.35 121.233C1293.56 120.809 1293.73 120.367 1293.86 119.901C1295.08 115.531 1292.51 110.987 1288.13 109.77C1283.76 108.554 1279.2 111.119 1277.98 115.489C1277.3 117.922 1277.8 120.408 1279.13 122.344C1275.57 122.986 1272.08 123.899 1268.69 125.055C1269.09 121.148 1266.63 117.394 1262.71 116.305C1258.33 115.089 1253.78 117.654 1252.56 122.024C1251.6 125.458 1252.99 128.994 1255.75 130.943C1252.63 132.748 1249.65 134.788 1246.82 137.044C1246.12 134.276 1244 131.946 1241.05 131.127C1236.68 129.911 1232.12 132.476 1230.9 136.846C1229.68 141.216 1232.25 145.76 1236.63 146.976C1236.63 146.978 1236.64 146.978 1236.64 146.979C1234.35 149.715 1232.24 152.635 1230.36 155.729C1229.3 154.183 1227.72 152.985 1225.77 152.445C1221.4 151.228 1216.84 153.793 1215.62 158.162C1214.4 162.532 1216.97 167.076 1221.35 168.292C1222.31 168.559 1223.27 168.634 1224.21 168.558C1223.61 170.238 1223.04 171.94 1222.55 173.686C1222.06 175.434 1221.67 177.184 1221.32 178.935C1220.55 178.384 1219.68 177.95 1218.72 177.683C1214.35 176.466 1209.79 179.032 1208.57 183.401C1207.35 187.771 1209.92 192.315 1214.3 193.532C1216.24 194.072 1218.22 193.863 1219.93 193.086C1219.93 196.705 1220.22 200.288 1220.77 203.812C1220.76 203.811 1220.76 203.808 1220.75 203.807C1216.37 202.59 1211.82 205.155 1210.6 209.525C1209.38 213.894 1211.95 218.439 1216.32 219.655C1219.27 220.474 1222.29 219.574 1224.33 217.569C1225.58 220.949 1227.07 224.23 1228.8 227.381C1225.43 227.629 1222.41 229.938 1221.45 233.369C1220.23 237.739 1222.8 242.283 1227.18 243.5C1231.09 244.587 1235.14 242.647 1236.83 239.105C1239.13 241.842 1241.64 244.421 1244.35 246.801C1242.22 247.776 1240.51 249.645 1239.83 252.074C1238.61 256.444 1241.17 260.988 1245.55 262.204C1249.93 263.421 1254.49 260.856 1255.71 256.486C1255.83 256.024 1255.91 255.561 1255.96 255.099C1259.04 256.865 1262.29 258.418 1265.68 259.733C1264.68 260.71 1263.91 261.947 1263.51 263.387C1262.29 267.757 1264.86 272.301 1269.23 273.518C1273.61 274.735 1278.17 272.17 1279.39 267.8C1279.79 266.36 1279.77 264.904 1279.42 263.552C1283.01 264.177 1286.6 264.521 1290.16 264.598C1289.96 265.019 1289.78 265.456 1289.66 265.919C1288.43 270.289 1291 274.833 1295.38 276.05C1299.76 277.266 1304.31 274.702 1305.54 270.332C1306.21 267.9 1305.72 265.417 1304.39 263.482C1307.94 262.841 1311.42 261.93 1314.81 260.776C1314.42 264.679 1316.88 268.424 1320.79 269.512C1325.17 270.728 1329.73 268.163 1330.95 263.793C1331.9 260.364 1330.52 256.833 1327.77 254.883C1330.88 253.078 1333.86 251.039 1336.68 248.788C1337.38 251.555 1339.51 253.884 1342.45 254.703C1346.83 255.919 1351.38 253.353 1352.6 248.984C1353.83 244.614 1351.26 240.07 1346.88 238.854C1346.88 238.853 1346.87 238.852 1346.86 238.851C1349.16 236.116 1351.26 233.197 1353.14 230.105C1354.2 231.65 1355.78 232.846 1357.73 233.386C1362.11 234.603 1366.66 232.037 1367.88 227.667C1369.1 223.299 1366.53 218.754 1362.15 217.537ZM1273.8 257.19C1238.29 247.323 1217.46 210.462 1227.36 175.021C1237.26 139.582 1274.2 118.774 1309.7 128.641C1345.21 138.508 1366.05 175.37 1356.15 210.809C1346.25 246.25 1309.31 267.057 1273.8 257.19Z" fill="#853095"/>
</g>
</svg>
