<svg width="24" height="24" viewBox="0 0 24 24" fill="none" xmlns="http://www.w3.org/2000/svg">
<path d="M19.75 3.55469H4.25C3.14543 3.55469 2.25 4.45012 2.25 5.55469V18.4997C2.25 19.6043 3.14543 20.4997 4.25 20.4997H19.75C20.8546 20.4997 21.75 19.6043 21.75 18.4997V5.55469C21.75 4.45012 20.8546 3.55469 19.75 3.55469Z" fill="black" fill-opacity="0.8"/>
<path d="M19.915 10.2352L19.09 10.9352M4.265 10.2852L5.09 10.9852M7.28 7.73523L7.84 8.66023M12.05 6.49023V7.57023M12.23 15.7002L16.845 7.60023M21.75 13.7002C21.75 14.2307 21.5393 14.7394 21.1642 15.1144C20.7891 15.4895 20.2804 15.7002 19.75 15.7002H4.25C3.71957 15.7002 3.21086 15.4895 2.83579 15.1144C2.46071 14.7394 2.25 14.2307 2.25 13.7002" stroke="#F4F4F4" stroke-linecap="round" stroke-linejoin="round"/>
<path d="M13.715 17.7451C13.9221 17.7451 14.09 17.5772 14.09 17.3701C14.09 17.163 13.9221 16.9951 13.715 16.9951C13.5079 16.9951 13.34 17.163 13.34 17.3701C13.34 17.5772 13.5079 17.7451 13.715 17.7451Z" fill="#F4F4F4"/>
<path d="M15.195 17.7451C15.4021 17.7451 15.57 17.5772 15.57 17.3701C15.57 17.163 15.4021 16.9951 15.195 16.9951C14.9879 16.9951 14.82 17.163 14.82 17.3701C14.82 17.5772 14.9879 17.7451 15.195 17.7451Z" fill="#F4F4F4"/>
<path d="M16.675 17.7451C16.8821 17.7451 17.05 17.5772 17.05 17.3701C17.05 17.163 16.8821 16.9951 16.675 16.9951C16.4679 16.9951 16.3 17.163 16.3 17.3701C16.3 17.5772 16.4679 17.7451 16.675 17.7451Z" fill="#F4F4F4"/>
<path d="M18.155 17.7451C18.3621 17.7451 18.53 17.5772 18.53 17.3701C18.53 17.163 18.3621 16.9951 18.155 16.9951C17.9479 16.9951 17.78 17.163 17.78 17.3701C17.78 17.5772 17.9479 17.7451 18.155 17.7451Z" fill="#F4F4F4"/>
<path d="M19.635 17.7451C19.8421 17.7451 20.01 17.5772 20.01 17.3701C20.01 17.163 19.8421 16.9951 19.635 16.9951C19.4279 16.9951 19.26 17.163 19.26 17.3701C19.26 17.5772 19.4279 17.7451 19.635 17.7451Z" fill="#F4F4F4"/>
<path d="M13.715 19.2051C13.9221 19.2051 14.09 19.0372 14.09 18.8301C14.09 18.623 13.9221 18.4551 13.715 18.4551C13.5079 18.4551 13.34 18.623 13.34 18.8301C13.34 19.0372 13.5079 19.2051 13.715 19.2051Z" fill="#F4F4F4"/>
<path d="M15.195 19.2051C15.4021 19.2051 15.57 19.0372 15.57 18.8301C15.57 18.623 15.4021 18.4551 15.195 18.4551C14.9879 18.4551 14.82 18.623 14.82 18.8301C14.82 19.0372 14.9879 19.2051 15.195 19.2051Z" fill="#F4F4F4"/>
<path d="M16.675 19.2051C16.8821 19.2051 17.05 19.0372 17.05 18.8301C17.05 18.623 16.8821 18.4551 16.675 18.4551C16.4679 18.4551 16.3 18.623 16.3 18.8301C16.3 19.0372 16.4679 19.2051 16.675 19.2051Z" fill="#F4F4F4"/>
<path d="M18.155 19.2051C18.3621 19.2051 18.53 19.0372 18.53 18.8301C18.53 18.623 18.3621 18.4551 18.155 18.4551C17.9479 18.4551 17.78 18.623 17.78 18.8301C17.78 19.0372 17.9479 19.2051 18.155 19.2051Z" fill="#F4F4F4"/>
<path d="M19.635 19.2051C19.8421 19.2051 20.01 19.0372 20.01 18.8301C20.01 18.623 19.8421 18.4551 19.635 18.4551C19.4279 18.4551 19.26 18.623 19.26 18.8301C19.26 19.0372 19.4279 19.2051 19.635 19.2051Z" fill="#F4F4F4"/>
</svg>
