<svg width="327" height="107" viewBox="0 0 327 107" fill="none" xmlns="http://www.w3.org/2000/svg">
<path opacity="0.5" d="M45.108 106.784C35.8608 106.751 27.8731 104.613 21.1449 100.371C14.4167 96.1283 9.22964 90.0133 5.58381 82.0256C1.93797 74.0379 0.131629 64.4593 0.164773 53.2898C0.197917 42.0871 2.02083 32.5748 5.63352 24.7528C9.27936 16.9309 14.4498 10.9815 21.1449 6.90483C27.8731 2.82812 35.8608 0.789769 45.108 0.789769C54.3551 0.789769 62.3428 2.84469 69.071 6.95455C75.7992 11.0312 80.9863 16.9806 84.6321 24.8026C88.2779 32.6245 90.0843 42.1203 90.0511 53.2898C90.0511 64.5256 88.2282 74.1373 84.5824 82.125C80.9366 90.1127 75.7495 96.2277 69.0213 100.47C62.3262 104.679 54.3551 106.784 45.108 106.784ZM45.108 84.3125C49.8807 84.3125 53.7917 81.8267 56.8409 76.8551C59.9233 71.8504 61.4479 63.9953 61.4148 53.2898C61.4148 46.2964 60.7188 40.5791 59.3267 36.1378C57.9347 31.6965 56.0123 28.4152 53.5597 26.294C51.107 24.1397 48.2898 23.0625 45.108 23.0625C40.3352 23.0625 36.4408 25.482 33.4247 30.321C30.4086 35.16 28.8674 42.8163 28.8011 53.2898C28.768 60.4157 29.4474 66.2822 30.8395 70.8892C32.2315 75.4631 34.1539 78.8438 36.6065 81.0312C39.0923 83.2188 41.9261 84.3125 45.108 84.3125ZM159.942 2.18182V104H132.3V27.6364H131.703L109.43 40.9602V17.4943L134.487 2.18182H159.942Z" fill="#66DAFF"/>
<path d="M98.5 70.5H150.5" stroke="#069BCA" stroke-width="3" strokeLinecap="round"/>
<path d="M183.442 69.0497C183.304 68.6188 183.12 68.233 182.888 67.892C182.661 67.5464 182.388 67.2528 182.071 67.0114C181.754 66.7652 181.392 66.5781 180.984 66.4503C180.582 66.3224 180.139 66.2585 179.656 66.2585C178.837 66.2585 178.098 66.4692 177.44 66.8906C176.782 67.312 176.261 67.9299 175.878 68.7443C175.499 69.554 175.31 70.5459 175.31 71.7202C175.31 72.8991 175.501 73.8958 175.885 74.7102C176.268 75.5246 176.794 76.1425 177.462 76.5639C178.129 76.9853 178.889 77.196 179.741 77.196C180.532 77.196 181.221 77.035 181.808 76.7131C182.4 76.3911 182.857 75.9366 183.179 75.3494C183.506 74.7576 183.669 74.0616 183.669 73.2614L184.237 73.3679H180.075V71.5568H185.793V73.2116C185.793 74.4332 185.532 75.4938 185.011 76.3935C184.495 77.2884 183.78 77.9796 182.866 78.4673C181.957 78.955 180.916 79.1989 179.741 79.1989C178.425 79.1989 177.27 78.8958 176.276 78.2898C175.286 77.6837 174.514 76.8243 173.96 75.7116C173.406 74.5942 173.129 73.2685 173.129 71.7344C173.129 70.5743 173.29 69.5327 173.612 68.6094C173.934 67.6861 174.386 66.9025 174.969 66.2585C175.556 65.6098 176.245 65.1151 177.036 64.7741C177.831 64.4285 178.7 64.2557 179.642 64.2557C180.428 64.2557 181.16 64.3717 181.837 64.6037C182.518 64.8357 183.125 65.1648 183.655 65.5909C184.19 66.017 184.633 66.5237 184.983 67.1108C185.333 67.6932 185.57 68.3395 185.693 69.0497H183.442ZM190.578 79V64.4545H199.698V66.3438H192.773V70.7756H199.222V72.6577H192.773V77.1108H199.783V79H190.578ZM203.912 66.3438V64.4545H215.169V66.3438H210.631V79H208.443V66.3438H203.912ZM234.883 68.2756C234.807 67.6032 234.495 67.0824 233.945 66.7131C233.396 66.339 232.705 66.152 231.871 66.152C231.275 66.152 230.759 66.2467 230.323 66.4361C229.888 66.6207 229.549 66.8764 229.308 67.2031C229.071 67.5251 228.952 67.892 228.952 68.304C228.952 68.6496 229.033 68.9479 229.194 69.1989C229.36 69.4498 229.575 69.6605 229.84 69.831C230.11 69.9967 230.399 70.1364 230.707 70.25C231.014 70.3589 231.31 70.4489 231.594 70.5199L233.015 70.8892C233.479 71.0028 233.955 71.1567 234.442 71.3509C234.93 71.545 235.382 71.8007 235.799 72.1179C236.216 72.4351 236.552 72.8281 236.808 73.2969C237.068 73.7656 237.198 74.3267 237.198 74.9801C237.198 75.804 236.985 76.5355 236.559 77.1747C236.138 77.8139 235.524 78.3182 234.719 78.6875C233.919 79.0568 232.951 79.2415 231.815 79.2415C230.726 79.2415 229.783 79.0687 228.988 78.723C228.192 78.3774 227.57 77.8873 227.12 77.2528C226.67 76.6136 226.422 75.8561 226.374 74.9801H228.576C228.619 75.5057 228.789 75.9437 229.087 76.294C229.39 76.6397 229.776 76.8977 230.245 77.0682C230.719 77.2339 231.237 77.3168 231.8 77.3168C232.421 77.3168 232.972 77.2197 233.455 77.0256C233.943 76.8267 234.326 76.5521 234.606 76.2017C234.885 75.8466 235.025 75.4323 235.025 74.9588C235.025 74.5279 234.902 74.1752 234.656 73.9006C234.414 73.6259 234.085 73.3987 233.668 73.2188C233.256 73.0388 232.79 72.8802 232.269 72.7429L230.55 72.2741C229.386 71.9569 228.462 71.4905 227.781 70.875C227.103 70.2595 226.765 69.4451 226.765 68.4318C226.765 67.5937 226.992 66.8622 227.447 66.2372C227.901 65.6122 228.517 65.1269 229.293 64.7812C230.07 64.4309 230.946 64.2557 231.921 64.2557C232.906 64.2557 233.775 64.4285 234.528 64.7741C235.285 65.1198 235.882 65.5956 236.317 66.2017C236.753 66.803 236.98 67.4943 236.999 68.2756H234.883ZM241.103 66.3438V64.4545H252.36V66.3438H247.822V79H245.635V66.3438H241.103ZM256.358 79H254.028L259.263 64.4545H261.798L267.033 79H264.703L260.591 67.0966H260.477L256.358 79ZM256.749 73.304H264.305V75.1506H256.749V73.304ZM271.133 79V64.4545H276.318C277.445 64.4545 278.38 64.6487 279.123 65.0369C279.871 65.4252 280.43 65.9626 280.799 66.6491C281.169 67.331 281.353 68.1193 281.353 69.0142C281.353 69.9044 281.166 70.688 280.792 71.3651C280.423 72.0374 279.864 72.5606 279.116 72.9347C278.373 73.3087 277.438 73.4957 276.311 73.4957H272.383V71.6065H276.112C276.822 71.6065 277.4 71.5047 277.845 71.3011C278.295 71.0975 278.624 70.8016 278.832 70.4134C279.04 70.0251 279.145 69.5587 279.145 69.0142C279.145 68.465 279.038 67.9891 278.825 67.5866C278.617 67.1842 278.288 66.8764 277.838 66.6634C277.393 66.4455 276.808 66.3366 276.083 66.3366H273.328V79H271.133ZM278.314 72.4375L281.907 79H279.407L275.885 72.4375H278.314ZM285.306 66.3438V64.4545H296.564V66.3438H292.025V79H289.838V66.3438H285.306ZM301.051 79V64.4545H310.17V66.3438H303.246V70.7756H309.695V72.6577H303.246V77.1108H310.256V79H301.051ZM319.811 79H315.102V64.4545H319.96C321.385 64.4545 322.609 64.7457 323.632 65.3281C324.654 65.9058 325.438 66.7367 325.983 67.821C326.532 68.9006 326.806 70.1955 326.806 71.706C326.806 73.2211 326.529 74.5232 325.975 75.6122C325.426 76.7012 324.631 77.5393 323.589 78.1264C322.547 78.7088 321.288 79 319.811 79ZM317.297 77.0824H319.69C320.798 77.0824 321.719 76.8741 322.453 76.4574C323.187 76.036 323.736 75.4276 324.1 74.6321C324.465 73.8319 324.647 72.8565 324.647 71.706C324.647 70.5649 324.465 69.5966 324.1 68.8011C323.741 68.0057 323.203 67.402 322.488 66.9901C321.773 66.5781 320.886 66.3722 319.825 66.3722H317.297V77.0824Z" fill="#069BCA"/>
</svg>
