<svg width="433" height="107" viewBox="0 0 433 107" fill="none" xmlns="http://www.w3.org/2000/svg">
<path opacity="0.5" d="M45.108 106.784C35.8608 106.751 27.8731 104.613 21.1449 100.371C14.4167 96.1283 9.22964 90.0133 5.58381 82.0256C1.93797 74.0379 0.131629 64.4593 0.164773 53.2898C0.197917 42.0871 2.02083 32.5748 5.63352 24.7528C9.27936 16.9309 14.4498 10.9815 21.1449 6.90483C27.8731 2.82812 35.8608 0.789769 45.108 0.789769C54.3551 0.789769 62.3428 2.84469 69.071 6.95455C75.7992 11.0312 80.9863 16.9806 84.6321 24.8026C88.2779 32.6245 90.0843 42.1203 90.0511 53.2898C90.0511 64.5256 88.2282 74.1373 84.5824 82.125C80.9366 90.1127 75.7495 96.2277 69.0213 100.47C62.3262 104.679 54.3551 106.784 45.108 106.784ZM45.108 84.3125C49.8807 84.3125 53.7917 81.8267 56.8409 76.8551C59.9233 71.8504 61.4479 63.9953 61.4148 53.2898C61.4148 46.2964 60.7188 40.5791 59.3267 36.1378C57.9347 31.6965 56.0123 28.4152 53.5597 26.294C51.107 24.1397 48.2898 23.0625 45.108 23.0625C40.3352 23.0625 36.4408 25.482 33.4247 30.321C30.4086 35.16 28.8674 42.8163 28.8011 53.2898C28.768 60.4157 29.4474 66.2822 30.8395 70.8892C32.2315 75.4631 34.1539 78.8438 36.6065 81.0312C39.0923 83.2188 41.9261 84.3125 45.108 84.3125ZM110.027 104V84.1136L148.01 52.6932C150.529 50.6051 152.683 48.6496 154.473 46.8267C156.296 44.9706 157.688 43.0649 158.649 41.1094C159.643 39.1539 160.141 36.983 160.141 34.5966C160.141 31.9782 159.577 29.741 158.45 27.8849C157.357 26.0289 155.832 24.6037 153.876 23.6094C151.921 22.5819 149.667 22.0682 147.115 22.0682C144.563 22.0682 142.309 22.5819 140.354 23.6094C138.431 24.6368 136.94 26.1449 135.879 28.1335C134.819 30.1222 134.288 32.5417 134.288 35.392H108.038C108.038 28.233 109.646 22.0682 112.861 16.8977C116.076 11.7273 120.616 7.75 126.483 4.96591C132.349 2.18182 139.227 0.789769 147.115 0.789769C155.268 0.789769 162.328 2.09896 168.294 4.71733C174.293 7.30256 178.917 10.9484 182.165 15.6548C185.446 20.3613 187.087 25.8797 187.087 32.2102C187.087 36.1212 186.275 40.0156 184.651 43.8935C183.027 47.7382 180.11 51.9972 175.901 56.6705C171.691 61.3438 165.709 66.9119 157.953 73.375L148.408 81.3295V81.9261H188.18V104H110.027Z" fill="#66DAFF"/>
<line x1="51.5" y1="58.5" x2="103.5" y2="58.5" stroke="#069BCA" stroke-width="3" strokeLinecap="round"/>
<path d="M124.446 67L120.412 52.4545H122.72L125.554 63.7188H125.689L128.636 52.4545H130.923L133.871 63.7259H134.006L136.832 52.4545H139.148L135.107 67H132.898L129.837 56.1051H129.723L126.662 67H124.446ZM143.149 67V52.4545H145.343V58.7756H152.595V52.4545H154.797V67H152.595V60.6577H145.343V67H143.149ZM159.993 67V52.4545H169.112V54.3438H162.187V58.7756H168.636V60.6577H162.187V65.1108H169.197V67H159.993ZM174.043 67V52.4545H179.228C180.355 52.4545 181.29 52.6487 182.033 53.0369C182.781 53.4252 183.34 53.9626 183.71 54.6491C184.079 55.331 184.263 56.1193 184.263 57.0142C184.263 57.9044 184.076 58.688 183.702 59.3651C183.333 60.0374 182.774 60.5606 182.026 60.9347C181.283 61.3087 180.348 61.4957 179.221 61.4957H175.293V59.6065H179.022C179.732 59.6065 180.31 59.5047 180.755 59.3011C181.205 59.0975 181.534 58.8016 181.742 58.4134C181.951 58.0251 182.055 57.5587 182.055 57.0142C182.055 56.465 181.948 55.9891 181.735 55.5866C181.527 55.1842 181.198 54.8764 180.748 54.6634C180.303 54.4455 179.718 54.3366 178.994 54.3366H176.238V67H174.043ZM181.224 60.4375L184.817 67H182.317L178.795 60.4375H181.224ZM188.934 67V52.4545H198.053V54.3438H191.129V58.7756H197.577V60.6577H191.129V65.1108H198.138V67H188.934ZM209.156 52.4545H211.648L215.448 59.0668H215.604L219.404 52.4545H221.897L216.62 61.2898V67H214.433V61.2898L209.156 52.4545ZM237.862 59.7273C237.862 61.2803 237.578 62.6155 237.01 63.733C236.441 64.8456 235.663 65.7027 234.673 66.304C233.688 66.9006 232.568 67.1989 231.314 67.1989C230.054 67.1989 228.93 66.9006 227.94 66.304C226.955 65.7027 226.179 64.8433 225.61 63.7259C225.042 62.6084 224.758 61.2756 224.758 59.7273C224.758 58.1742 225.042 56.8414 225.61 55.7287C226.179 54.6113 226.955 53.7543 227.94 53.1577C228.93 52.5563 230.054 52.2557 231.314 52.2557C232.568 52.2557 233.688 52.5563 234.673 53.1577C235.663 53.7543 236.441 54.6113 237.01 55.7287C237.578 56.8414 237.862 58.1742 237.862 59.7273ZM235.689 59.7273C235.689 58.5436 235.497 57.5469 235.113 56.7372C234.734 55.9228 234.214 55.3073 233.551 54.8906C232.893 54.4692 232.147 54.2585 231.314 54.2585C230.475 54.2585 229.727 54.4692 229.069 54.8906C228.411 55.3073 227.89 55.9228 227.507 56.7372C227.128 57.5469 226.939 58.5436 226.939 59.7273C226.939 60.911 227.128 61.91 227.507 62.7244C227.89 63.5341 228.411 64.1496 229.069 64.571C229.727 64.9877 230.475 65.196 231.314 65.196C232.147 65.196 232.893 64.9877 233.551 64.571C234.214 64.1496 234.734 63.5341 235.113 62.7244C235.497 61.91 235.689 60.911 235.689 59.7273ZM251.952 52.4545H254.153V62.0213C254.153 63.0393 253.914 63.9413 253.436 64.7273C252.958 65.5085 252.286 66.1241 251.419 66.5739C250.553 67.0189 249.537 67.2415 248.372 67.2415C247.212 67.2415 246.199 67.0189 245.332 66.5739C244.466 66.1241 243.794 65.5085 243.315 64.7273C242.837 63.9413 242.598 63.0393 242.598 62.0213V52.4545H244.793V61.8438C244.793 62.5019 244.937 63.0866 245.226 63.598C245.519 64.1094 245.934 64.5118 246.469 64.8054C247.004 65.0942 247.638 65.2386 248.372 65.2386C249.111 65.2386 249.748 65.0942 250.283 64.8054C250.822 64.5118 251.234 64.1094 251.518 63.598C251.807 63.0866 251.952 62.5019 251.952 61.8438V52.4545ZM276.481 57.0497C276.344 56.6188 276.159 56.233 275.927 55.892C275.7 55.5464 275.427 55.2528 275.11 55.0114C274.793 54.7652 274.431 54.5781 274.023 54.4503C273.621 54.3224 273.178 54.2585 272.695 54.2585C271.876 54.2585 271.138 54.4692 270.479 54.8906C269.821 55.312 269.3 55.9299 268.917 56.7443C268.538 57.554 268.349 58.5459 268.349 59.7202C268.349 60.8991 268.54 61.8958 268.924 62.7102C269.308 63.5246 269.833 64.1425 270.501 64.5639C271.168 64.9853 271.928 65.196 272.781 65.196C273.571 65.196 274.26 65.035 274.847 64.7131C275.439 64.3911 275.896 63.9366 276.218 63.3494C276.545 62.7576 276.708 62.0616 276.708 61.2614L277.276 61.3679H273.114V59.5568H278.832V61.2116C278.832 62.4332 278.571 63.4938 278.05 64.3935C277.534 65.2884 276.819 65.9796 275.906 66.4673C274.996 66.955 273.955 67.1989 272.781 67.1989C271.464 67.1989 270.309 66.8958 269.315 66.2898C268.325 65.6837 267.553 64.8243 266.999 63.7116C266.445 62.5942 266.168 61.2685 266.168 59.7344C266.168 58.5743 266.329 57.5327 266.651 56.6094C266.973 55.6861 267.425 54.9025 268.008 54.2585C268.595 53.6098 269.284 53.1151 270.075 52.7741C270.87 52.4285 271.739 52.2557 272.681 52.2557C273.467 52.2557 274.199 52.3717 274.876 52.6037C275.558 52.8357 276.164 53.1648 276.694 53.5909C277.229 54.017 277.672 54.5237 278.022 55.1108C278.372 55.6932 278.609 56.3395 278.732 57.0497H276.481ZM296.252 59.7273C296.252 61.2803 295.968 62.6155 295.4 63.733C294.832 64.8456 294.053 65.7027 293.064 66.304C292.079 66.9006 290.959 67.1989 289.704 67.1989C288.445 67.1989 287.32 66.9006 286.331 66.304C285.346 65.7027 284.569 64.8433 284.001 63.7259C283.433 62.6084 283.149 61.2756 283.149 59.7273C283.149 58.1742 283.433 56.8414 284.001 55.7287C284.569 54.6113 285.346 53.7543 286.331 53.1577C287.32 52.5563 288.445 52.2557 289.704 52.2557C290.959 52.2557 292.079 52.5563 293.064 53.1577C294.053 53.7543 294.832 54.6113 295.4 55.7287C295.968 56.8414 296.252 58.1742 296.252 59.7273ZM294.079 59.7273C294.079 58.5436 293.887 57.5469 293.504 56.7372C293.125 55.9228 292.604 55.3073 291.941 54.8906C291.283 54.4692 290.538 54.2585 289.704 54.2585C288.866 54.2585 288.118 54.4692 287.46 54.8906C286.802 55.3073 286.281 55.9228 285.897 56.7372C285.519 57.5469 285.329 58.5436 285.329 59.7273C285.329 60.911 285.519 61.91 285.897 62.7244C286.281 63.5341 286.802 64.1496 287.46 64.571C288.118 64.9877 288.866 65.196 289.704 65.196C290.538 65.196 291.283 64.9877 291.941 64.571C292.604 64.1496 293.125 63.5341 293.504 62.7244C293.887 61.91 294.079 60.911 294.079 59.7273ZM310.476 52.4545V67H308.282V52.4545H310.476ZM323.605 56.2756C323.53 55.6032 323.217 55.0824 322.668 54.7131C322.119 54.339 321.427 54.152 320.594 54.152C319.998 54.152 319.481 54.2467 319.046 54.4361C318.61 54.6207 318.272 54.8764 318.03 55.2031C317.793 55.5251 317.675 55.892 317.675 56.304C317.675 56.6496 317.756 56.9479 317.917 57.1989C318.082 57.4498 318.298 57.6605 318.563 57.831C318.833 57.9967 319.122 58.1364 319.429 58.25C319.737 58.3589 320.033 58.4489 320.317 58.5199L321.738 58.8892C322.202 59.0028 322.677 59.1567 323.165 59.3509C323.653 59.545 324.105 59.8007 324.522 60.1179C324.938 60.4351 325.275 60.8281 325.53 61.2969C325.791 61.7656 325.921 62.3267 325.921 62.9801C325.921 63.804 325.708 64.5355 325.282 65.1747C324.86 65.8139 324.247 66.3182 323.442 66.6875C322.642 67.0568 321.674 67.2415 320.537 67.2415C319.448 67.2415 318.506 67.0687 317.711 66.723C316.915 66.3774 316.292 65.8873 315.843 65.2528C315.393 64.6136 315.144 63.8561 315.097 62.9801H317.299C317.341 63.5057 317.512 63.9437 317.81 64.294C318.113 64.6397 318.499 64.8977 318.968 65.0682C319.441 65.2339 319.96 65.3168 320.523 65.3168C321.143 65.3168 321.695 65.2197 322.178 65.0256C322.666 64.8267 323.049 64.5521 323.328 64.2017C323.608 63.8466 323.748 63.4323 323.748 62.9588C323.748 62.5279 323.624 62.1752 323.378 61.9006C323.137 61.6259 322.808 61.3987 322.391 61.2188C321.979 61.0388 321.513 60.8802 320.992 60.7429L319.273 60.2741C318.108 59.9569 317.185 59.4905 316.503 58.875C315.826 58.2595 315.488 57.4451 315.488 56.4318C315.488 55.5937 315.715 54.8622 316.169 54.2372C316.624 53.6122 317.239 53.1269 318.016 52.7812C318.792 52.4309 319.668 52.2557 320.644 52.2557C321.629 52.2557 322.498 52.4285 323.25 52.7741C324.008 53.1198 324.605 53.5956 325.04 54.2017C325.476 54.803 325.703 55.4943 325.722 56.2756H323.605ZM337.119 54.3438V52.4545H348.376V54.3438H343.838V67H341.65V54.3438H337.119ZM352.864 67V52.4545H355.058V58.7756H362.31V52.4545H364.511V67H362.31V60.6577H355.058V67H352.864ZM369.707 67V52.4545H378.827V54.3438H371.902V58.7756H378.351V60.6577H371.902V65.1108H378.912V67H369.707ZM391.051 67V52.4545H393.246V59.4006H393.423L399.524 52.4545H402.287L396.42 59.0028L402.308 67H399.666L394.964 60.5014L393.246 62.4759V67H391.051ZM406.332 67V52.4545H415.452V54.3438H408.527V58.7756H414.976V60.6577H408.527V65.1108H415.537V67H406.332ZM419.261 52.4545H421.754L425.554 59.0668H425.71L429.51 52.4545H432.002L426.725 61.2898V67H424.538V61.2898L419.261 52.4545Z" fill="#069BCA"/>
</svg>
