<svg width="414" height="107" viewBox="0 0 414 107" fill="none" xmlns="http://www.w3.org/2000/svg">
<path opacity="0.5" d="M45.108 106.784C35.8608 106.751 27.8731 104.613 21.1449 100.371C14.4167 96.1283 9.22964 90.0133 5.58381 82.0256C1.93797 74.0379 0.131629 64.4593 0.164773 53.2898C0.197917 42.0871 2.02083 32.5748 5.63352 24.7528C9.27936 16.9309 14.4498 10.9815 21.1449 6.90483C27.8731 2.82812 35.8608 0.789769 45.108 0.789769C54.3551 0.789769 62.3428 2.84469 69.071 6.95455C75.7992 11.0312 80.9863 16.9806 84.6321 24.8026C88.2779 32.6245 90.0843 42.1203 90.0511 53.2898C90.0511 64.5256 88.2282 74.1373 84.5824 82.125C80.9366 90.1127 75.7495 96.2277 69.0213 100.47C62.3262 104.679 54.3551 106.784 45.108 106.784ZM45.108 84.3125C49.8807 84.3125 53.7917 81.8267 56.8409 76.8551C59.9233 71.8504 61.4479 63.9953 61.4148 53.2898C61.4148 46.2964 60.7188 40.5791 59.3267 36.1378C57.9347 31.6965 56.0123 28.4152 53.5597 26.294C51.107 24.1397 48.2898 23.0625 45.108 23.0625C40.3352 23.0625 36.4408 25.482 33.4247 30.321C30.4086 35.16 28.8674 42.8163 28.8011 53.2898C28.768 60.4157 29.4474 66.2822 30.8395 70.8892C32.2315 75.4631 34.1539 78.8438 36.6065 81.0312C39.0923 83.2188 41.9261 84.3125 45.108 84.3125ZM149.8 105.392C141.779 105.392 134.653 104.017 128.422 101.266C122.224 98.4815 117.352 94.6534 113.805 89.7812C110.259 84.9091 108.469 79.3078 108.436 72.9773H136.277C136.31 74.9328 136.907 76.6894 138.067 78.2472C139.26 79.7718 140.884 80.965 142.939 81.8267C144.994 82.6884 147.347 83.1193 149.999 83.1193C152.551 83.1193 154.804 82.6719 156.76 81.777C158.715 80.849 160.24 79.5729 161.334 77.9489C162.428 76.3248 162.958 74.4687 162.925 72.3807C162.958 70.3258 162.328 68.5028 161.036 66.9119C159.776 65.321 158.003 64.0781 155.716 63.1832C153.429 62.2884 150.794 61.8409 147.811 61.8409H137.47V42.75H147.811C150.562 42.75 152.982 42.3026 155.07 41.4077C157.191 40.5128 158.831 39.2699 159.991 37.679C161.185 36.0881 161.765 34.2651 161.732 32.2102C161.765 30.2216 161.284 28.465 160.29 26.9403C159.295 25.4157 157.903 24.2225 156.114 23.3608C154.357 22.499 152.319 22.0682 149.999 22.0682C147.48 22.0682 145.226 22.5156 143.237 23.4105C141.282 24.3054 139.741 25.5483 138.614 27.1392C137.487 28.7301 136.907 30.553 136.874 32.608H110.425C110.458 26.3769 112.165 20.875 115.545 16.1023C118.959 11.3295 123.633 7.58428 129.565 4.86647C135.498 2.14867 142.309 0.789769 149.999 0.789769C157.522 0.789769 164.168 2.06581 169.935 4.61789C175.735 7.16998 180.259 10.6832 183.507 15.1577C186.788 19.599 188.412 24.6865 188.379 30.4205C188.446 36.1212 186.49 40.7945 182.513 44.4403C178.569 48.0862 173.564 50.2405 167.499 50.9034V51.6989C175.718 52.5937 181.9 55.1127 186.043 59.2557C190.186 63.3655 192.224 68.536 192.158 74.767C192.191 80.733 190.401 86.0194 186.788 90.6264C183.209 95.2334 178.221 98.8461 171.824 101.464C165.46 104.083 158.119 105.392 149.8 105.392Z" fill="#66DAFF"/>
<line x1="98.5" y1="70.5" x2="150.5" y2="70.5" stroke="#069BCA" stroke-width="3" strokeLinecap="round"/>
<path d="M173.598 79V64.4545H175.793V71.4006H175.97L182.071 64.4545H184.834L178.967 71.0028L184.855 79H182.213L177.511 72.5014L175.793 74.4759V79H173.598ZM200.619 64.4545V79H198.602L191.209 68.3324H191.074V79H188.879V64.4545H190.911L198.311 75.1364H198.446V64.4545H200.619ZM218.456 71.7273C218.456 73.2803 218.172 74.6155 217.603 75.733C217.035 76.8456 216.256 77.7027 215.267 78.304C214.282 78.9006 213.162 79.1989 211.907 79.1989C210.648 79.1989 209.523 78.9006 208.534 78.304C207.549 77.7027 206.772 76.8433 206.204 75.7259C205.636 74.6084 205.352 73.2756 205.352 71.7273C205.352 70.1742 205.636 68.8414 206.204 67.7287C206.772 66.6113 207.549 65.7543 208.534 65.1577C209.523 64.5563 210.648 64.2557 211.907 64.2557C213.162 64.2557 214.282 64.5563 215.267 65.1577C216.256 65.7543 217.035 66.6113 217.603 67.7287C218.172 68.8414 218.456 70.1742 218.456 71.7273ZM216.282 71.7273C216.282 70.5436 216.091 69.5469 215.707 68.7372C215.328 67.9228 214.807 67.3073 214.145 66.8906C213.486 66.4692 212.741 66.2585 211.907 66.2585C211.069 66.2585 210.321 66.4692 209.663 66.8906C209.005 67.3073 208.484 67.9228 208.1 68.7372C207.722 69.5469 207.532 70.5436 207.532 71.7273C207.532 72.911 207.722 73.91 208.1 74.7244C208.484 75.5341 209.005 76.1496 209.663 76.571C210.321 76.9877 211.069 77.196 211.907 77.196C212.741 77.196 213.486 76.9877 214.145 76.571C214.807 76.1496 215.328 75.5341 215.707 74.7244C216.091 73.91 216.282 72.911 216.282 71.7273ZM225.864 79L221.83 64.4545H224.138L226.972 75.7188H227.107L230.054 64.4545H232.341L235.289 75.7259H235.424L238.25 64.4545H240.566L236.525 79H234.316L231.255 68.1051H231.141L228.08 79H225.864ZM251.142 66.3438V64.4545H262.4V66.3438H257.861V79H255.674V66.3438H251.142ZM266.887 79V64.4545H269.082V70.7756H276.333V64.4545H278.535V79H276.333V72.6577H269.082V79H266.887ZM283.731 79V64.4545H292.85V66.3438H285.925V70.7756H292.374V72.6577H285.925V77.1108H292.935V79H283.731ZM317.156 69.1847H314.94C314.854 68.7112 314.696 68.2945 314.464 67.9347C314.232 67.5748 313.948 67.2694 313.612 67.0185C313.275 66.7675 312.899 66.5781 312.482 66.4503C312.07 66.3224 311.632 66.2585 311.168 66.2585C310.33 66.2585 309.58 66.4692 308.917 66.8906C308.259 67.312 307.738 67.9299 307.354 68.7443C306.976 69.5587 306.786 70.553 306.786 71.7273C306.786 72.911 306.976 73.91 307.354 74.7244C307.738 75.5388 308.261 76.1544 308.924 76.571C309.587 76.9877 310.333 77.196 311.161 77.196C311.621 77.196 312.056 77.1345 312.468 77.0114C312.885 76.8835 313.261 76.6965 313.597 76.4503C313.933 76.2041 314.218 75.9034 314.45 75.5483C314.686 75.1884 314.85 74.7765 314.94 74.3125L317.156 74.3196C317.037 75.0346 316.808 75.6927 316.467 76.294C316.13 76.8906 315.697 77.4067 315.167 77.8423C314.641 78.2732 314.04 78.607 313.363 78.8438C312.686 79.0805 311.947 79.1989 311.147 79.1989C309.888 79.1989 308.765 78.9006 307.781 78.304C306.796 77.7027 306.019 76.8433 305.451 75.7259C304.888 74.6084 304.606 73.2756 304.606 71.7273C304.606 70.1742 304.89 68.8414 305.458 67.7287C306.026 66.6113 306.803 65.7543 307.788 65.1577C308.772 64.5563 309.892 64.2557 311.147 64.2557C311.919 64.2557 312.638 64.367 313.306 64.5895C313.978 64.8073 314.582 65.1293 315.117 65.5554C315.652 65.9768 316.095 66.4929 316.445 67.1037C316.796 67.7098 317.032 68.4034 317.156 69.1847ZM334.417 71.7273C334.417 73.2803 334.132 74.6155 333.564 75.733C332.996 76.8456 332.217 77.7027 331.228 78.304C330.243 78.9006 329.123 79.1989 327.868 79.1989C326.609 79.1989 325.484 78.9006 324.495 78.304C323.51 77.7027 322.733 76.8433 322.165 75.7259C321.597 74.6084 321.313 73.2756 321.313 71.7273C321.313 70.1742 321.597 68.8414 322.165 67.7287C322.733 66.6113 323.51 65.7543 324.495 65.1577C325.484 64.5563 326.609 64.2557 327.868 64.2557C329.123 64.2557 330.243 64.5563 331.228 65.1577C332.217 65.7543 332.996 66.6113 333.564 67.7287C334.132 68.8414 334.417 70.1742 334.417 71.7273ZM332.243 71.7273C332.243 70.5436 332.051 69.5469 331.668 68.7372C331.289 67.9228 330.768 67.3073 330.105 66.8906C329.447 66.4692 328.702 66.2585 327.868 66.2585C327.03 66.2585 326.282 66.4692 325.624 66.8906C324.966 67.3073 324.445 67.9228 324.061 68.7372C323.683 69.5469 323.493 70.5436 323.493 71.7273C323.493 72.911 323.683 73.91 324.061 74.7244C324.445 75.5341 324.966 76.1496 325.624 76.571C326.282 76.9877 327.03 77.196 327.868 77.196C328.702 77.196 329.447 76.9877 330.105 76.571C330.768 76.1496 331.289 75.5341 331.668 74.7244C332.051 73.91 332.243 72.911 332.243 71.7273ZM348.506 64.4545H350.708V74.0213C350.708 75.0393 350.469 75.9413 349.991 76.7273C349.513 77.5085 348.84 78.1241 347.974 78.5739C347.107 79.0189 346.092 79.2415 344.927 79.2415C343.767 79.2415 342.754 79.0189 341.887 78.5739C341.021 78.1241 340.348 77.5085 339.87 76.7273C339.392 75.9413 339.153 75.0393 339.153 74.0213V64.4545H341.347V73.8438C341.347 74.5019 341.492 75.0866 341.781 75.598C342.074 76.1094 342.488 76.5118 343.023 76.8054C343.558 77.0942 344.193 77.2386 344.927 77.2386C345.665 77.2386 346.302 77.0942 346.837 76.8054C347.377 76.5118 347.789 76.1094 348.073 75.598C348.362 75.0866 348.506 74.5019 348.506 73.8438V64.4545ZM367.639 64.4545V79H365.622L358.228 68.3324H358.093V79H355.899V64.4545H357.93L365.331 75.1364H365.466V64.4545H367.639ZM372.123 66.3438V64.4545H383.38V66.3438H378.842V79H376.654V66.3438H372.123ZM387.868 79V64.4545H393.052C394.179 64.4545 395.114 64.6487 395.858 65.0369C396.606 65.4252 397.164 65.9626 397.534 66.6491C397.903 67.331 398.088 68.1193 398.088 69.0142C398.088 69.9044 397.901 70.688 397.527 71.3651C397.157 72.0374 396.599 72.5606 395.85 72.9347C395.107 73.3087 394.172 73.4957 393.045 73.4957H389.118V71.6065H392.846C393.556 71.6065 394.134 71.5047 394.579 71.3011C395.029 71.0975 395.358 70.8016 395.566 70.4134C395.775 70.0251 395.879 69.5587 395.879 69.0142C395.879 68.465 395.772 67.9891 395.559 67.5866C395.351 67.1842 395.022 66.8764 394.572 66.6634C394.127 66.4455 393.542 66.3366 392.818 66.3366H390.062V79H387.868ZM395.048 72.4375L398.642 79H396.142L392.619 72.4375H395.048ZM401.109 64.4545H403.602L407.401 71.0668H407.558L411.357 64.4545H413.85L408.573 73.2898V79H406.386V73.2898L401.109 64.4545Z" fill="#069BCA"/>
</svg>
